<?xml version="1.0" encoding="UTF-8" standalone="no"?>
<svg
   id="图层_1"
   data-name="图层 1"
   viewBox="0 0 160 40"
   version="1.1"
   sodipodi:docname="travelling_w.svg"
   xml:space="preserve"
   inkscape:version="1.4 (86a8ad7, 2024-10-11)"
   xmlns:inkscape="http://www.inkscape.org/namespaces/inkscape"
   xmlns:sodipodi="http://sodipodi.sourceforge.net/DTD/sodipodi-0.dtd"
   xmlns="http://www.w3.org/2000/svg"
   xmlns:svg="http://www.w3.org/2000/svg"><sodipodi:namedview
     id="namedview15"
     pagecolor="#ffffff"
     bordercolor="#999999"
     borderopacity="1"
     inkscape:showpageshadow="2"
     inkscape:pageopacity="0"
     inkscape:pagecheckerboard="0"
     inkscape:deskcolor="#d1d1d1"
     inkscape:zoom="5.6568543"
     inkscape:cx="26.958446"
     inkscape:cy="11.402097"
     inkscape:window-width="2560"
     inkscape:window-height="1377"
     inkscape:window-x="-8"
     inkscape:window-y="-8"
     inkscape:window-maximized="1"
     inkscape:current-layer="图层_1" /><defs
     id="defs1"><style
       id="style1">.cls-1{stroke:#f2f2f2;}.cls-1,.cls-3{stroke-miterlimit:10;}.cls-2,.cls-3{fill:#fff;}.cls-3{stroke:#000;stroke-width:0.25px;}</style><style
       id="style1-8">.cls-1{stroke:#f2f2f2;}.cls-1,.cls-3{stroke-miterlimit:10;}.cls-2,.cls-3{fill:#fff;}.cls-3{stroke:#000;stroke-width:0.25px;}</style></defs><title
     id="title1">travelling</title><rect
     width="160"
     height="40"
     rx="6"
     id="rect1" /><rect
     class="cls-1"
     x="2"
     y="2"
     width="156"
     height="36"
     rx="4"
     id="rect2" /><path
     d="M243.79,325V295h44.42v30Zm14.77-3.41-.76.86-.13.15c-.23.26-.25.5-.06.68s.44.13.67-.13c.4-.46.79-.92,1.21-1.36a.68.68,0,0,1,.42-.19h10.95a.54.54,0,0,1,.46.2c.41.49.83,1,1.26,1.42a.4.4,0,0,0,.61.06.43.43,0,0,0,0-.6l-.76-.86-.17-.22a2.4,2.4,0,0,0,.27,0,12.48,12.48,0,0,0,1.94-.13,4.33,4.33,0,0,0,3.35-4c0-1.11,0-2.22,0-3.33a2.06,2.06,0,0,0,0-.21c-.19.1-.34.21-.51.28a.43.43,0,0,0-.28.47c0,1,0,2,0,3a3.53,3.53,0,0,1-3.38,3.13c-.93,0-1.86,0-2.79,0H257.7a3.69,3.69,0,0,1-2.63-.95,3.51,3.51,0,0,1-.93-1.36,68.93,68.93,0,0,0,16.29-3.13,2.61,2.61,0,0,0,2,2.47A2.36,2.36,0,0,0,275,317a2.56,2.56,0,0,0,.19-3.35l.19-.09c1-.45,2.06-.87,3.07-1.34a27.34,27.34,0,0,0,6.35-3.87,6.73,6.73,0,0,0,1.84-2.23,2,2,0,0,0-.68-2.65,5.88,5.88,0,0,0-2.12-.91,21.93,21.93,0,0,0-5.54-.46h-.4c0-.56,0-1.09-.11-1.61a4.39,4.39,0,0,0-4.33-3.7H257.51a4.42,4.42,0,0,0-4.44,4.43v4.66c0,.09,0,.18,0,.3a5.22,5.22,0,0,1,.54-.31.45.45,0,0,0,.27-.48c0-1.24,0-2.48,0-3.71a6.18,6.18,0,0,1,.05-1.06,3.57,3.57,0,0,1,3.65-3h15.69a3.5,3.5,0,0,1,.65,0,3.66,3.66,0,0,1,3.1,3.85c0,1.34,0,2.68,0,4a.29.29,0,0,0,.08.21c.22.15.45.27.73.43V303H280a16.29,16.29,0,0,1,3.81.47,4.24,4.24,0,0,1,1.82.85,1,1,0,0,1,.33,1.33,5.1,5.1,0,0,1-.71,1.15,11.05,11.05,0,0,1-2.48,2.14,40.54,40.54,0,0,1-8.11,4.08.43.43,0,0,1-.33,0,2.58,2.58,0,0,0-3.6,1.24.53.53,0,0,1-.35.3q-3.4,1.08-6.9,1.83c-1.17.25-2.35.46-3.61.71a2.75,2.75,0,0,0,.64-2.12,2.55,2.55,0,0,0-1.13-1.82,2.63,2.63,0,0,0-3.33.34,2.56,2.56,0,0,0-.75,1.72,2.69,2.69,0,0,0,1.17,2.31l-2.51.18c0-.1,0-.15,0-.2,0-.95,0-1.9,0-2.85,0-.12,0-.29-.1-.35a6,6,0,0,0-.72-.44v3.84c-.56,0-1.1,0-1.64,0a15.82,15.82,0,0,1-3.56-.42,4.56,4.56,0,0,1-2.06-.94,1.1,1.1,0,0,1-.3-1.27,4.27,4.27,0,0,1,1.07-1.55,14.47,14.47,0,0,1,3.38-2.54c1.44-.79,2.92-1.51,4.37-2.26.11-.06.27-.13.29-.22a6.85,6.85,0,0,0,0-.79l-.2.07c-.66.3-1.32.59-2,.91a26,26,0,0,0-6,3.78,6.19,6.19,0,0,0-1.65,2.08,2,2,0,0,0,.77,2.7,6.33,6.33,0,0,0,2,.82,20.9,20.9,0,0,0,5.4.48c.21,0,.3,0,.38.25a4.4,4.4,0,0,0,4.17,2.84Zm5.56-16.35,2-.52c.07,0,.17-.09.18-.15,0-.23,0-.46,0-.73l-2.17.54c0-1,0-2,0-2.93a1,1,0,0,0-1.08-1.1h-3.72c-1,0-2,0-3,0a1.06,1.06,0,0,0-1.16,1.13v8.05a1,1,0,0,0,1.1,1.08c2.23,0,4.47,0,6.7,0a1.08,1.08,0,0,0,1.13-1.13c0-.94,0-1.88,0-2.82Zm11.61-3a7.82,7.82,0,0,0,0-.84,1,1,0,0,0-1.19-1.09H268a1,1,0,0,0-1.18,1.19v8a1,1,0,0,0,1,1h6.84a1.19,1.19,0,0,0,.55-.15,1.1,1.1,0,0,0,.49-1.08v-6.23l.7-.09v-.78Z"
     transform="translate(-238 -290)"
     id="path2"
     style="fill:#f9f9f9" /><path
     class="cls-2"
     d="M258.56,321.59h-1a4.4,4.4,0,0,1-4.17-2.84c-.08-.21-.17-.25-.38-.25a20.9,20.9,0,0,1-5.4-.48,6.33,6.33,0,0,1-2-.82,2,2,0,0,1-.77-2.7,6.19,6.19,0,0,1,1.65-2.08,26,26,0,0,1,6-3.78c.65-.32,1.31-.61,2-.91l.2-.07a6.85,6.85,0,0,1,0,.79c0,.09-.18.16-.29.22-1.45.75-2.93,1.47-4.37,2.26a14.47,14.47,0,0,0-3.38,2.54,4.27,4.27,0,0,0-1.07,1.55,1.1,1.1,0,0,0,.3,1.27,4.56,4.56,0,0,0,2.06.94,15.82,15.82,0,0,0,3.56.42c.54,0,1.08,0,1.64,0v-3.84a6,6,0,0,1,.72.44c.08.06.1.23.1.35,0,.95,0,1.9,0,2.85,0,.05,0,.1,0,.2l2.51-.18a2.69,2.69,0,0,1-1.17-2.31,2.56,2.56,0,0,1,.75-1.72,2.63,2.63,0,0,1,3.33-.34,2.55,2.55,0,0,1,1.13,1.82,2.75,2.75,0,0,1-.64,2.12c1.26-.25,2.44-.46,3.61-.71q3.49-.75,6.9-1.83a.53.53,0,0,0,.35-.3,2.58,2.58,0,0,1,3.6-1.24.43.43,0,0,0,.33,0,40.54,40.54,0,0,0,8.11-4.08,11.05,11.05,0,0,0,2.48-2.14,5.1,5.1,0,0,0,.71-1.15,1,1,0,0,0-.33-1.33,4.24,4.24,0,0,0-1.82-.85A16.29,16.29,0,0,0,280,303h-2.12v3.24c-.28-.16-.51-.28-.73-.43a.29.29,0,0,1-.08-.21c0-1.34,0-2.68,0-4a3.66,3.66,0,0,0-3.1-3.85,3.5,3.5,0,0,0-.65,0H257.59a3.57,3.57,0,0,0-3.65,3,6.18,6.18,0,0,0-.05,1.06c0,1.23,0,2.47,0,3.71a.45.45,0,0,1-.27.48,5.22,5.22,0,0,0-.54.31c0-.12,0-.21,0-.3v-4.66a4.42,4.42,0,0,1,4.44-4.43h15.92a4.39,4.39,0,0,1,4.33,3.7c.08.52.07,1,.11,1.61h.4a21.93,21.93,0,0,1,5.54.46,5.88,5.88,0,0,1,2.12.91,2,2,0,0,1,.68,2.65,6.73,6.73,0,0,1-1.84,2.23,27.34,27.34,0,0,1-6.35,3.87c-1,.47-2,.89-3.07,1.34l-.19.09A2.56,2.56,0,0,1,275,317a2.36,2.36,0,0,1-2.52.77,2.61,2.61,0,0,1-2-2.47,68.93,68.93,0,0,1-16.29,3.13,3.51,3.51,0,0,0,.93,1.36,3.69,3.69,0,0,0,2.63.95h13.1c.93,0,1.86,0,2.79,0a3.53,3.53,0,0,0,3.38-3.13c.08-1,0-2,0-3a.43.43,0,0,1,.28-.47c.17-.07.32-.18.51-.28a2.06,2.06,0,0,1,0,.21c0,1.11,0,2.22,0,3.33a4.33,4.33,0,0,1-3.35,4,12.48,12.48,0,0,1-1.94.13,2.4,2.4,0,0,1-.27,0l.17.22.76.86a.43.43,0,0,1,0,.6.4.4,0,0,1-.61-.06c-.43-.46-.85-.93-1.26-1.42a.54.54,0,0,0-.46-.2H259.91a.68.68,0,0,0-.42.19c-.42.44-.81.9-1.21,1.36-.23.26-.47.31-.67.13s-.17-.42.06-.68l.13-.15Z"
     transform="translate(-238 -290)"
     id="path3"
     style="fill:#f9f9f9" /><path
     class="cls-2"
     d="M264.12,305.24v1.41c0,.94,0,1.88,0,2.82A1.08,1.08,0,0,1,263,310.6c-2.23,0-4.47,0-6.7,0a1,1,0,0,1-1.1-1.08v-8.05a1.06,1.06,0,0,1,1.16-1.13c1,0,2,0,3,0H263a1,1,0,0,1,1.08,1.1c0,1,0,1.93,0,2.93l2.17-.54c0,.27,0,.5,0,.73,0,.06-.11.13-.18.15Z"
     transform="translate(-238 -290)"
     id="path4" /><path
     class="cls-2"
     d="M275.73,302.25h.71V303l-.7.09v6.23a1.1,1.1,0,0,1-.49,1.08,1.19,1.19,0,0,1-.55.15h-6.84a1,1,0,0,1-1-1v-8a1,1,0,0,1,1.18-1.19h6.53a1,1,0,0,1,1.19,1.09A7.82,7.82,0,0,1,275.73,302.25Z"
     transform="translate(-238 -290)"
     id="path5" /><path
     class="cls-3"
     d="M301.66,302v1.41h-5.05v15.12h-1.55V303.39H290V302Z"
     transform="translate(-238 -290)"
     id="path6" /><path
     class="cls-3"
     d="M307.38,305.94a7.7,7.7,0,0,1,1.38.12,4.15,4.15,0,0,1,.9.24l-.3,1.33a3.34,3.34,0,0,0-.74-.2,8.16,8.16,0,0,0-1.47-.11,6.39,6.39,0,0,0-1.54.15,3.38,3.38,0,0,0-.76.24v10.8h-1.48V306.75a10.83,10.83,0,0,1,1.57-.53A9,9,0,0,1,307.38,305.94Z"
     transform="translate(-238 -290)"
     id="path7" /><path
     class="cls-3"
     d="M315.46,305.89a5,5,0,0,1,2,.35,3.39,3.39,0,0,1,1.31.95,3.75,3.75,0,0,1,.73,1.45,6.9,6.9,0,0,1,.23,1.81v7.78a4.81,4.81,0,0,1-.66.15l-1,.18c-.38.07-.8.12-1.27.16s-.94.06-1.42.06a6.23,6.23,0,0,1-1.72-.22,3.75,3.75,0,0,1-1.37-.68,3.29,3.29,0,0,1-.91-1.19,4.32,4.32,0,0,1-.33-1.78,3.67,3.67,0,0,1,.37-1.72,3.22,3.22,0,0,1,1-1.18,4.67,4.67,0,0,1,1.57-.68,8.84,8.84,0,0,1,2-.21l.68,0,.68.1.57.12a1.23,1.23,0,0,1,.33.11v-.77a8.55,8.55,0,0,0-.09-1.25,2.9,2.9,0,0,0-.4-1.1,2.2,2.2,0,0,0-.87-.78,3.09,3.09,0,0,0-1.47-.3,7.11,7.11,0,0,0-1.93.19c-.43.13-.74.23-.93.31l-.21-1.36a5.14,5.14,0,0,1,1.2-.36A9.7,9.7,0,0,1,315.46,305.89Zm.14,11.5c.58,0,1.08,0,1.51-.06a10.76,10.76,0,0,0,1.11-.15v-4.34a3.82,3.82,0,0,0-.8-.25,6.45,6.45,0,0,0-1.5-.14,7.49,7.49,0,0,0-1.14.09,2.92,2.92,0,0,0-1.09.36,2.1,2.1,0,0,0-1.14,2,2.91,2.91,0,0,0,.21,1.17,1.86,1.86,0,0,0,.62.76,2.48,2.48,0,0,0,1,.42A5.36,5.36,0,0,0,315.6,317.39Z"
     transform="translate(-238 -290)"
     id="path8" /><path
     class="cls-3"
     d="M327,316.84c.32-.68.65-1.46,1-2.35s.66-1.79,1-2.74.6-1.9.87-2.86.49-1.87.67-2.71H332c-.27,1.13-.58,2.24-.92,3.34s-.69,2.17-1.06,3.22-.77,2.06-1.17,3-.8,1.89-1.18,2.74h-1.38c-.4-.85-.8-1.77-1.19-2.74s-.79-2-1.16-3-.73-2.12-1.07-3.22-.64-2.21-.91-3.34h1.57c.18.84.41,1.75.67,2.71s.56,1.91.87,2.86.64,1.86,1,2.74S326.72,316.16,327,316.84Z"
     transform="translate(-238 -290)"
     id="path9" /><path
     class="cls-3"
     d="M333.71,312.34a8.29,8.29,0,0,1,.44-2.83,6.27,6.27,0,0,1,1.16-2,4.6,4.6,0,0,1,1.64-1.2,4.7,4.7,0,0,1,1.9-.4,4.34,4.34,0,0,1,3.45,1.48,6.82,6.82,0,0,1,1.29,4.56c0,.13,0,.25,0,.38l0,.36h-8.27a5.57,5.57,0,0,0,1.07,3.48,3.91,3.91,0,0,0,3.19,1.22,6.13,6.13,0,0,0,1.91-.24,9,9,0,0,0,1-.4l.27,1.33a5.46,5.46,0,0,1-1.2.45,7,7,0,0,1-2.06.27,6.55,6.55,0,0,1-2.64-.48,4.68,4.68,0,0,1-1.8-1.34,5.3,5.3,0,0,1-1-2A9.55,9.55,0,0,1,333.71,312.34Zm8.36-1a5.05,5.05,0,0,0-.87-3,2.74,2.74,0,0,0-2.32-1.07,3,3,0,0,0-1.43.33,3.6,3.6,0,0,0-1.09.9,4.22,4.22,0,0,0-.73,1.3,5.69,5.69,0,0,0-.31,1.55Z"
     transform="translate(-238 -290)"
     id="path10" /><path
     class="cls-3"
     d="M349.88,318.73a4.94,4.94,0,0,1-1.31-.2,2.44,2.44,0,0,1-.94-.55,2.41,2.41,0,0,1-.57-1,5,5,0,0,1-.19-1.46V300.29l1.48-.29v15.51a3.73,3.73,0,0,0,.1.92,1.12,1.12,0,0,0,.85.84,5.79,5.79,0,0,0,.78.17Z"
     transform="translate(-238 -290)"
     id="path11" /><path
     class="cls-3"
     d="M355.69,318.73a4.88,4.88,0,0,1-1.31-.2,2.37,2.37,0,0,1-.94-.55,2.41,2.41,0,0,1-.57-1,4.7,4.7,0,0,1-.19-1.46V300.29l1.48-.29v15.51a3.3,3.3,0,0,0,.1.92,1.28,1.28,0,0,0,.31.55,1.24,1.24,0,0,0,.53.29,6,6,0,0,0,.79.17Z"
     transform="translate(-238 -290)"
     id="path12" /><path
     class="cls-3"
     d="M360.33,302.46a1.17,1.17,0,0,1-.32.87,1.06,1.06,0,0,1-.77.32,1.08,1.08,0,0,1-.78-.32,1.2,1.2,0,0,1-.31-.87,1.17,1.17,0,0,1,.31-.87,1.05,1.05,0,0,1,.78-.33,1,1,0,0,1,.77.33A1.14,1.14,0,0,1,360.33,302.46ZM360,318.51h-1.48V306.18H360Z"
     transform="translate(-238 -290)"
     id="path13" /><path
     class="cls-3"
     d="M363.91,306.61c.44-.13,1-.27,1.77-.43a13.34,13.34,0,0,1,2.74-.24,5.47,5.47,0,0,1,2.24.41,3.5,3.5,0,0,1,1.44,1.15,5,5,0,0,1,.76,1.8,11.19,11.19,0,0,1,.23,2.32v6.89h-1.48v-6.39a11.7,11.7,0,0,0-.18-2.22,3.85,3.85,0,0,0-.56-1.48,2.29,2.29,0,0,0-1.05-.82,4.54,4.54,0,0,0-1.63-.25,11.82,11.82,0,0,0-1.81.12,5.77,5.77,0,0,0-1,.21v10.83h-1.48Z"
     transform="translate(-238 -290)"
     id="path14" /><path
     class="cls-3"
     d="M384.54,317.08a3.11,3.11,0,0,1-.41.28,6.13,6.13,0,0,1-.67.32,5.16,5.16,0,0,1-.91.27,5.1,5.1,0,0,1-1.15.11,6,6,0,0,1-2-.33,4.59,4.59,0,0,1-1.68-1.05,5.4,5.4,0,0,1-1.15-1.85,7.77,7.77,0,0,1-.43-2.76,7.37,7.37,0,0,1,.39-2.43,5.82,5.82,0,0,1,1.1-1.95,5.16,5.16,0,0,1,1.76-1.28,5.64,5.64,0,0,1,2.33-.47,12.29,12.29,0,0,1,2.63.23c.66.15,1.2.3,1.63.44v11.26a5,5,0,0,1-1.37,3.95,6.14,6.14,0,0,1-4.12,1.18,10.75,10.75,0,0,1-2.06-.18,10.45,10.45,0,0,1-1.58-.42l.29-1.4a7,7,0,0,0,1.49.45,9.45,9.45,0,0,0,1.91.19,4.47,4.47,0,0,0,3-.85,3.74,3.74,0,0,0,.94-2.9Zm0-9.4a8.24,8.24,0,0,0-1-.22,10,10,0,0,0-1.76-.11,4,4,0,0,0-1.69.34,3.71,3.71,0,0,0-1.27,1,4.35,4.35,0,0,0-.79,1.51,6.82,6.82,0,0,0,0,4,4.07,4.07,0,0,0,.83,1.42,3,3,0,0,0,1.18.8,3.66,3.66,0,0,0,1.34.25,5.09,5.09,0,0,0,1.83-.31,3.87,3.87,0,0,0,1.29-.71Z"
     transform="translate(-238 -290)"
     id="path15" /><path
     style="fill:#ff0000;stroke-width:0.0662252"
     d="M 4.9404276,37.280041 C 3.8372998,36.904323 3.0879679,36.149748 2.7151757,35.039219 L 2.5496689,34.546183 V 20 5.4538168 L 2.717907,4.952644 C 3.0908079,3.8417914 3.8445257,3.0898901 4.9607806,2.7151757 L 5.4538168,2.5496689 H 80 154.54619 l 0.49696,0.1668251 c 1.12255,0.37683 1.86396,1.1191011 2.24167,2.2442866 l 0.16551,0.4930362 V 20 34.546183 l -0.16551,0.493036 c -0.37771,1.125186 -1.11912,1.867457 -2.24167,2.244287 l -0.49696,0.166825 -74.557865,-0.0017 -74.5578614,-0.0017 z M 20.529668,32.834245 c 0.25504,-0.28057 0.618403,-0.675437 0.807473,-0.877483 l 0.343764,-0.367358 5.583388,-0.0186 c 3.070864,-0.01023 5.648733,-0.0026 5.728597,0.01686 0.07986,0.01951 0.492597,0.422742 0.917184,0.896082 0.697729,0.777847 0.793274,0.860619 0.993421,0.860619 0.153761,0 0.252955,-0.04499 0.324538,-0.147186 0.194033,-0.277022 0.127917,-0.451476 -0.395997,-1.044867 l -0.497006,-0.562914 0.481492,-0.01567 c 0.892715,-0.02905 1.793979,-0.158974 2.223016,-0.320463 1.297386,-0.488335 2.318877,-1.631776 2.664303,-2.982378 0.115697,-0.452373 0.130596,-0.736784 0.130596,-2.493079 v -1.982454 l -0.314569,0.180279 c -0.54963,0.314993 -0.513076,0.165644 -0.514708,2.102969 -0.0014,1.69772 -0.0052,1.74632 -0.172075,2.206293 -0.425419,1.172768 -1.325503,2.008813 -2.488925,2.311846 -0.576271,0.150099 -17.016591,0.148087 -17.605081,-0.0022 -0.663791,-0.169467 -1.203023,-0.474653 -1.68036,-0.951024 -0.373504,-0.372748 -0.865373,-1.096526 -0.790451,-1.163137 0.01272,-0.01131 0.589348,-0.07015 1.281401,-0.130771 4.79842,-0.420296 9.698646,-1.391562 14.512247,-2.87645 l 0.406286,-0.12533 0.02972,0.309293 c 0.06597,0.686515 0.642462,1.523476 1.291876,1.87555 1.123078,0.608869 2.384071,0.436964 3.169651,-0.432101 0.766459,-0.847914 0.941542,-2.006875 0.44978,-2.97732 -0.09156,-0.18069 -0.157023,-0.335906 -0.145468,-0.344924 0.01156,-0.009 0.602134,-0.263295 1.312399,-0.565058 2.576827,-1.094794 4.57206,-2.121681 6.092715,-3.135739 2.270128,-1.513849 3.316499,-2.516048 3.970351,-3.802744 C 49.015117,15.53508 48.96633,14.713339 48.509044,14.082074 48.25354,13.729361 47.470132,13.213982 46.791926,12.952439 45.631623,12.504978 43.49919,12.208788 41.34956,12.196505 l -1.431898,-0.0082 -0.04554,-0.778568 c -0.02536,-0.433534 -0.1045,-0.991333 -0.178583,-1.25867 C 39.265362,8.6059364 38.046648,7.4139428 36.49271,7.0204157 35.897668,6.8697244 19.00278,6.8697599 18.407955,7.0204538 c -1.210245,0.3066047 -2.329231,1.1996406 -2.862024,2.28411 -0.464582,0.9456322 -0.47762,1.0606112 -0.478726,4.2218542 -5.38e-4,1.538907 0.01017,2.798013 0.02379,2.798013 0.01362,0 0.15795,-0.07444 0.320724,-0.165411 0.541259,-0.302515 0.50422,-0.09386 0.529116,-2.980756 l 0.02227,-2.58231 0.175586,-0.455579 c 0.337426,-0.8754973 0.964964,-1.5825942 1.742102,-1.9629665 0.849442,-0.4157622 0.36718,-0.3960235 9.675812,-0.3960235 8.289061,0 8.498959,0.0031 8.909927,0.1317609 1.107606,0.3467455 1.909991,1.1064765 2.35921,2.2337971 l 0.178924,0.449011 0.02169,2.597067 0.02169,2.597067 0.385303,0.234059 c 0.211916,0.128733 0.403755,0.234059 0.426308,0.234059 0.02255,0 0.04101,-0.734202 0.04101,-1.63156 v -1.63156 l 1.837749,0.03791 c 2.966248,0.0612 4.536929,0.358755 5.576988,1.056536 0.505097,0.338872 0.662795,0.537074 0.71054,0.89304 0.09293,0.692831 -0.949351,2.097475 -2.3968,3.230086 -1.792294,1.402448 -6.11619,3.687085 -8.714345,4.60444 l -0.436199,0.154013 -0.391616,-0.16109 c -0.320747,-0.131939 -0.505726,-0.16109 -1.022193,-0.16109 -0.577865,0 -0.667197,0.01803 -1.06863,0.215675 -0.530061,0.260976 -0.909243,0.616062 -1.191011,1.115329 -0.148834,0.263719 -0.275905,0.400702 -0.432341,0.466065 -0.635822,0.265664 -4.079,1.210308 -6.015188,1.650282 -1.017792,0.23128 -4.291719,0.887929 -4.316767,0.86581 -0.0067,-0.0059 0.09763,-0.231842 0.231788,-0.50211 0.234761,-0.472948 0.243919,-0.517716 0.243919,-1.192353 0,-0.655969 -0.01372,-0.728814 -0.213716,-1.135074 -0.388365,-0.788881 -1.067847,-1.304287 -1.931161,-1.464836 -0.80451,-0.149615 -1.730853,0.142026 -2.318879,0.730051 -1.031487,1.031488 -1.04575,2.638804 -0.03302,3.72149 l 0.293401,0.31367 -0.381754,0.04063 c -0.209965,0.02234 -0.73192,0.06042 -1.1599,0.08461 l -0.778146,0.04398 -10e-4,-1.615679 c -5.58e-4,-0.888623 -0.02291,-1.649204 -0.04967,-1.690178 -0.05691,-0.08713 -0.678846,-0.488415 -0.756985,-0.488415 -0.02929,0 -0.05326,0.86894 -0.05326,1.930979 v 1.930979 l -1.397638,-0.04491 C 10.979078,27.536439 9.2947411,27.187911 8.24277,26.488562 7.7151683,26.137813 7.4740789,25.750991 7.537912,25.357634 c 0.1014978,-0.625458 0.6649602,-1.452203 1.5095496,-2.2149 1.5236354,-1.3759 2.2459284,-1.826245 6.0022074,-3.742333 l 1.672185,-0.852987 V 18.09821 c 0,-0.278113 -0.0273,-0.449203 -0.07168,-0.449203 -0.197074,0 -3.000293,1.321325 -4.085713,1.925841 -1.135125,0.632198 -2.520749,1.560002 -3.5247249,2.360128 -1.2601992,1.004326 -1.7599774,1.58037 -2.2302017,2.570529 -0.2241753,0.472049 -0.235052,0.526635 -0.2079247,1.043478 0.03318,0.632154 0.2495224,1.115887 0.6478203,1.448498 0.3908033,0.326353 1.509387,0.840854 2.2102869,1.016638 1.3322241,0.334119 4.1599931,0.623702 5.1187151,0.524192 0.223435,-0.02319 0.466751,-0.02296 0.540702,5.09e-4 0.08508,0.027 0.238817,0.254478 0.41866,0.619477 0.22849,0.463733 0.395119,0.687382 0.850026,1.140906 0.929856,0.927027 1.713953,1.250184 3.170539,1.306701 l 0.882862,0.03426 -0.291063,0.305747 c -0.747736,0.785465 -0.846286,1.000348 -0.580621,1.266014 0.256282,0.256281 0.454864,0.178167 0.960132,-0.377676 z M 144.51087,32.714974 c 0.79416,-0.201454 1.75064,-0.690711 2.14476,-1.097081 0.34685,-0.357637 0.67526,-0.88512 0.90466,-1.453051 0.35109,-0.869222 0.35362,-0.922349 0.35362,-7.448181 v -6.046522 l -0.54636,-0.147905 c -1.4054,-0.380459 -1.72633,-0.42238 -3.26159,-0.426043 -1.69056,-0.004 -1.94652,0.04285 -2.94702,0.539799 -0.52507,0.260804 -0.72824,0.411507 -1.22826,0.911099 -0.48124,0.48081 -0.65908,0.715894 -0.90373,1.194633 -0.61902,1.211236 -0.81895,2.196301 -0.76426,3.765336 0.0272,0.778904 0.0728,1.14787 0.20441,1.652118 0.61443,2.354115 2.17715,3.641366 4.60831,3.795972 1.10989,0.07058 2.38026,-0.246448 3.20642,-0.800183 0.18575,-0.124497 0.34145,-0.220725 0.34599,-0.21384 0.005,0.0069 -0.0145,0.489339 -0.0422,1.07212 -0.0375,0.785918 -0.0844,1.155173 -0.18163,1.429614 -0.41539,1.172221 -0.94937,1.688844 -2.16554,2.095142 -0.48785,0.162981 -0.61369,0.176807 -1.5894,0.174624 -1.15905,-0.0026 -2.01576,-0.120593 -2.90355,-0.399926 -0.2857,-0.08989 -0.52826,-0.153809 -0.53904,-0.142041 -0.0227,0.0248 -0.23291,1.034286 -0.23291,1.118533 0,0.03106 0.19378,0.116333 0.43062,0.189486 1.51425,0.467702 3.78104,0.57259 5.10674,0.236297 z M 78.476821,28.641609 c 0.869047,-0.06171 2.113662,-0.239248 2.831126,-0.403845 l 0.31457,-0.07217 -8.68e-4,-4.248361 c -8.08e-4,-3.939784 -0.01017,-4.293444 -0.12894,-4.869033 -0.339047,-1.643137 -1.288034,-2.630833 -2.8381,-2.953865 -0.564894,-0.117723 -1.940417,-0.133958 -2.706106,-0.03194 -0.686993,0.09153 -1.478304,0.324173 -1.478304,0.43461 0,0.332476 0.160622,1.085772 0.23151,1.085772 0.04563,0 0.213364,-0.04682 0.372748,-0.104039 0.547285,-0.196489 1.257662,-0.293312 2.152,-0.293312 0.724702,0 0.965881,0.02546 1.296629,0.136882 0.793113,0.267181 1.315344,0.782096 1.573901,1.55186 0.148993,0.443579 0.264364,1.387244 0.266106,2.176598 0.0011,0.509608 -0.0021,0.519992 -0.147861,0.476162 -0.799676,-0.240468 -0.979047,-0.26208 -2.201987,-0.26532 -1.524146,-0.004 -2.098669,0.09715 -2.980132,0.524848 -1.269868,0.616165 -1.885749,1.64431 -1.885292,3.147315 6.56e-4,2.142417 1.16602,3.414661 3.393172,3.704363 0.591835,0.07698 0.892974,0.07752 1.935828,0.0035 z m 24.872929,-0.152673 c 0.76037,-0.19698 1.33634,-0.434349 1.29812,-0.534976 -0.0153,-0.04024 -0.0663,-0.289225 -0.11333,-0.553298 -0.0471,-0.264073 -0.11569,-0.480132 -0.15253,-0.480132 -0.0368,0 -0.25275,0.07432 -0.47979,0.165149 -0.56483,0.225969 -1.17925,0.341612 -2.08239,0.391943 -1.28548,0.07164 -2.275625,-0.215666 -3.111221,-0.902764 -0.759126,-0.624216 -1.377371,-2.031081 -1.441232,-3.279651 l -0.03469,-0.678303 4.132003,-0.01706 4.132,-0.01706 -0.0108,-1.092715 c -0.0132,-1.341362 -0.17156,-2.048823 -0.6966,-3.112583 -0.56097,-1.136529 -1.41647,-1.868372 -2.60389,-2.227503 -0.61979,-0.187452 -1.96226,-0.170877 -2.615896,0.0323 -2.025404,0.629584 -3.305973,2.319706 -3.681496,4.858908 -0.195868,1.324399 -0.03007,3.129011 0.402073,4.37642 0.505006,1.457736 1.673284,2.567493 3.180086,3.020789 0.719323,0.216396 1.177503,0.265028 2.251653,0.238994 0.7863,-0.01906 1.12565,-0.05834 1.6279,-0.188453 z m 8.53875,-0.383327 c 0.0887,-0.570022 0.062,-0.651798 -0.21383,-0.654264 -0.22899,-0.002 -0.82739,-0.271466 -0.99764,-0.449163 -0.0964,-0.100577 -0.22851,-0.316551 -0.29367,-0.479942 -0.11115,-0.278741 -0.11961,-0.794177 -0.13702,-8.351912 l -0.0186,-8.054837 -0.47812,0.08969 c -0.26297,0.04933 -0.54518,0.105864 -0.62713,0.125636 l -0.14901,0.03595 0.001,7.896089 c 9.7e-4,6.663302 0.0162,7.967272 0.0977,8.352019 0.2393,1.129482 0.81486,1.703055 1.93176,1.925064 0.82583,0.164154 0.78838,0.182546 0.88434,-0.434325 z m 5.81248,-0.0048 c 0.0434,-0.297885 0.067,-0.553549 0.0524,-0.568144 -0.0146,-0.01459 -0.21941,-0.07053 -0.45516,-0.124306 -0.51352,-0.117135 -0.89805,-0.413566 -1.08182,-0.833966 -0.11821,-0.270447 -0.12449,-0.641426 -0.14176,-8.382974 -0.0171,-7.636551 -0.0246,-8.098144 -0.13245,-8.067475 -0.0629,0.01789 -0.29318,0.06644 -0.51173,0.107877 -0.21854,0.04144 -0.4495,0.0902 -0.51324,0.108362 -0.10956,0.03121 -0.11584,0.468265 -0.11492,7.992127 10e-4,8.685982 -0.01,8.420593 0.37947,9.136079 0.32079,0.589405 0.9131,0.959749 1.76172,1.101527 0.70711,0.118136 0.6684,0.142102 0.75749,-0.469107 z M 58.509934,20.89404 v -7.549669 h 2.516556 2.516556 V 12.715232 12.086093 H 57.81457 52.086093 v 0.596026 0.596027 h 2.549669 2.549668 v 7.582781 7.582782 h 0.662252 0.662252 z m 8.278145,2.148938 v -5.40073 l 0.218666,-0.09136 c 0.120266,-0.05025 0.485332,-0.141546 0.811258,-0.202879 0.717347,-0.134991 2.560686,-0.104107 3.124427,0.05235 0.396325,0.109992 0.344689,0.167626 0.512742,-0.572338 0.05705,-0.251214 0.09409,-0.466392 0.0823,-0.478173 -0.01178,-0.01178 -0.213523,-0.07445 -0.448318,-0.139273 -0.351874,-0.09714 -0.68298,-0.117207 -1.883861,-0.114178 -1.413719,0.0036 -1.479554,0.0097 -2.218543,0.208174 -0.418874,0.112474 -0.932947,0.269418 -1.142384,0.348765 l -0.380795,0.144266 v 5.823056 5.823057 h 0.662252 0.662251 z m 55.099341,-0.691985 v -6.092715 h -0.62914 -0.62914 v 6.092715 6.092716 h 0.62914 0.62914 z m 5.43046,0.666769 v -5.425946 l 0.48013,-0.103991 c 1.147,-0.248427 2.57573,-0.303388 3.41339,-0.131308 1.48405,0.304862 2.15715,1.186701 2.39555,3.138435 0.0397,0.325165 0.0685,2.114653 0.0685,4.254967 v 3.69379 h 0.6623 H 135 v -3.71122 c 0,-3.8151 -0.036,-4.554729 -0.27099,-5.560304 -0.28321,-1.212196 -1.01867,-2.224062 -1.92466,-2.648004 -0.77788,-0.363994 -1.33889,-0.464578 -2.59121,-0.464578 -1.25088,0 -2.07528,0.09944 -3.37539,0.407145 l -0.84437,0.199841 v 5.88856 5.88856 h 0.66225 0.66225 z m -37.185569,4.184225 c 1.103848,-2.533994 1.836093,-4.475181 2.629278,-6.970199 0.358086,-1.126394 1.112583,-3.782187 1.112583,-3.916249 0,-0.03149 -0.282543,-0.05726 -0.627874,-0.05726 h -0.627881 l -0.0417,0.182119 c -0.318569,1.391217 -0.998847,3.87058 -1.330993,4.850994 -0.659722,1.947351 -1.561715,4.282616 -2.090338,5.411902 l -0.161808,0.345679 -0.775808,-1.955962 c -1.102112,-2.778644 -1.824516,-5.010429 -2.48994,-7.692348 l -0.283444,-1.142384 h -0.690232 c -0.62588,0 -0.687132,0.0108 -0.656973,0.115894 0.01829,0.06374 0.15694,0.592715 0.308119,1.175497 0.752305,2.900084 2.063775,6.594059 3.520907,9.917218 l 0.399278,0.910596 h 0.647378 0.647384 z m -64.491424,-6.7445 c 0.10281,-0.0762 0.253981,-0.237061 0.335934,-0.357476 0.14748,-0.216692 0.149007,-0.242566 0.149007,-2.524471 v -2.305534 l 0.281457,-0.07298 c 1.016705,-0.263613 1.747579,-0.480801 1.819863,-0.540791 0.1142,-0.09478 0.115384,-0.848893 0.0013,-0.846693 -0.04553,8.79e-4 -0.53584,0.116371 -1.089578,0.25665 l -1.006797,0.255052 -0.01969,-1.675796 c -0.02167,-1.84427 -0.02025,-1.837771 -0.475662,-2.177782 -0.179737,-0.134193 -0.248225,-0.136542 -3.981118,-0.136542 -3.750146,0 -3.800601,0.0018 -3.98521,0.13854 -0.102836,0.0762 -0.254028,0.23706 -0.335982,0.357475 l -0.149007,0.218936 v 4.450612 4.450611 l 0.150327,0.225026 c 0.317145,0.474737 0.174824,0.460356 4.364732,0.441022 3.691043,-0.01703 3.756579,-0.01962 3.940398,-0.155861 z m 11.611442,-0.04358 c 0.120415,-0.08195 0.281279,-0.233113 0.357476,-0.33591 0.135247,-0.18246 0.139326,-0.267464 0.171652,-3.576159 l 0.03311,-3.389255 0.298013,-0.03311 0.298013,-0.03311 0.01972,-0.413908 0.01972,-0.413907 h -0.33429 -0.334286 V 11.63804 c 0,-0.712994 -0.115153,-0.969656 -0.534543,-1.191435 l -0.288803,-0.152723 -3.743957,0.01862 -3.743955,0.01862 -0.216231,0.154228 c -0.437187,0.311825 -0.418562,0.08887 -0.414304,4.959449 0.0043,4.920208 -0.02144,4.643231 0.46179,4.968879 l 0.221445,0.149232 h 3.755247 3.755247 z m 84.486681,-7.002953 c 0.33239,-0.202656 0.47904,-0.496739 0.47904,-0.960623 0,-0.652865 -0.38616,-1.091932 -0.9608,-1.092467 -0.78703,-7.33e-4 -1.25258,0.850637 -0.89541,1.637457 0.23354,0.514462 0.89009,0.712611 1.37717,0.415633 z"
     id="path16" /><path
     style="fill:#ff0000;stroke-width:0.0662252"
     d="m 77.119205,27.440452 c -1.29982,-0.112508 -2.000536,-0.492415 -2.39835,-1.300312 -0.20776,-0.421926 -0.217544,-0.476113 -0.217544,-1.204875 0,-0.67869 0.01814,-0.799699 0.163983,-1.094205 0.208765,-0.421553 0.625065,-0.838606 1.054119,-1.056024 0.968068,-0.490557 2.84942,-0.564841 4.14791,-0.163779 l 0.42869,0.132409 v 2.248995 c 0,1.236947 -0.01083,2.248995 -0.02407,2.248995 -0.01324,0 -0.184598,0.03196 -0.380795,0.07102 -0.494246,0.0984 -2.173936,0.169714 -2.77394,0.11778 z"
     id="path17" /><path
     style="fill:#ff0000;stroke-width:0.0662252"
     d="m 97.272781,21.009934 c 0.172531,-1.772961 1.264481,-3.262362 2.714743,-3.702866 0.373186,-0.113353 0.574026,-0.133033 1.099416,-0.107734 0.56775,0.02734 0.70086,0.05887 1.13987,0.270026 0.32655,0.157067 0.60187,0.351129 0.80262,0.565755 0.61276,0.655083 1.10817,1.968994 1.10918,2.941706 l 4.6e-4,0.44702 h -3.45328 -3.453287 z"
     id="path18"
     inkscape:label="path18" /><path
     style="fill:#ff0000;stroke-width:0.0662252"
     d="m 142.82955,26.714854 c -1.20271,-0.180228 -2.11868,-0.870182 -2.65948,-2.003254 -1.00144,-2.098189 -0.52699,-5.135132 1.01726,-6.511504 1.07454,-0.957724 2.69848,-1.190433 4.94909,-0.7092 l 0.50729,0.108469 -0.0376,4.045823 c -0.0431,4.636319 0.0485,4.084225 -0.74768,4.507693 -0.87834,0.467161 -2.12191,0.697888 -3.02891,0.561973 z"
     id="path19" /><path
     style="fill:#ff0000;stroke-width:0.0662252"
     d="M 4.9161476,39.862018 C 2.6866729,39.458947 0.86194199,37.759694 0.2130946,35.48237 L 0.06622517,34.966887 0.04866069,20.266875 C 0.02933554,4.0933242 0.00865101,4.9783144 0.43162989,3.8814936 1.1189217,2.0992864 2.6142374,0.75341351 4.5033113,0.21673864 L 5.0331126,0.06622517 79.735099,0.04923649 c 66.512861,-0.01512631 74.765931,-0.0059793 75.285301,0.08343954 2.3013,0.39621267 4.15136,2.11152097 4.76756,4.42031737 l 0.14581,0.5463443 V 20 34.900662 l -0.14947,0.560827 c -0.60853,2.283158 -2.46821,4.006091 -4.75436,4.404762 -0.51411,0.08965 -8.70832,0.09999 -75.088284,0.09469 C 16.27927,39.955867 5.3555793,39.941464 4.9161476,39.862018 Z M 155.06623,38.40738 c 1.22125,-0.285395 2.41665,-1.232197 2.96425,-2.347777 0.51687,-1.053014 0.47749,0.271347 0.47749,-16.059603 0,-16.3309502 0.0394,-15.0065895 -0.47749,-16.0596026 C 157.64035,3.1456141 156.85438,2.3596509 156.0596,1.9695258 155.75,1.817555 155.30298,1.6479474 155.06623,1.5926197 154.68254,1.5029564 146.52464,1.492024 80,1.492024 13.475366,1.492024 5.3174573,1.5029564 4.9337748,1.5926197 3.7125256,1.8780153 2.5171168,2.8248164 1.9695258,3.9403974 1.4526466,4.9934105 1.492024,3.6690498 1.492024,20 c 0,16.33095 -0.039377,15.006589 0.4775018,16.059603 0.389869,0.794261 1.1758618,1.580441 1.9708716,1.971341 0.3096026,0.152229 0.7417218,0.319794 0.9602649,0.372367 0.3450025,0.08299 10.2344947,0.09619 75.0662247,0.100127 66.564833,0.004 74.715593,-0.0064 75.099343,-0.09606 z"
     id="path20" /><g
     id="g20"><rect
       width="160"
       height="40"
       rx="6"
       id="rect1-2"
       x="0"
       y="0" /><rect
       class="cls-1"
       x="2"
       y="2"
       width="156"
       height="36"
       rx="4"
       id="rect2-4" /><path
       d="m 243.79,325 v -30 h 44.42 v 30 z m 14.77,-3.41 -0.76,0.86 -0.13,0.15 c -0.23,0.26 -0.25,0.5 -0.06,0.68 0.19,0.18 0.44,0.13 0.67,-0.13 0.4,-0.46 0.79,-0.92 1.21,-1.36 a 0.68,0.68 0 0 1 0.42,-0.19 h 10.95 a 0.54,0.54 0 0 1 0.46,0.2 c 0.41,0.49 0.83,1 1.26,1.42 a 0.4,0.4 0 0 0 0.61,0.06 0.43,0.43 0 0 0 0,-0.6 l -0.76,-0.86 -0.17,-0.22 a 2.4,2.4 0 0 0 0.27,0 12.48,12.48 0 0 0 1.94,-0.13 4.33,4.33 0 0 0 3.35,-4 c 0,-1.11 0,-2.22 0,-3.33 a 2.06,2.06 0 0 0 0,-0.21 c -0.19,0.1 -0.34,0.21 -0.51,0.28 a 0.43,0.43 0 0 0 -0.28,0.47 c 0,1 0,2 0,3 a 3.53,3.53 0 0 1 -3.38,3.13 c -0.93,0 -1.86,0 -2.79,0 H 257.7 a 3.69,3.69 0 0 1 -2.63,-0.95 3.51,3.51 0 0 1 -0.93,-1.36 68.93,68.93 0 0 0 16.29,-3.13 2.61,2.61 0 0 0 2,2.47 2.36,2.36 0 0 0 2.57,-0.84 2.56,2.56 0 0 0 0.19,-3.35 l 0.19,-0.09 c 1,-0.45 2.06,-0.87 3.07,-1.34 a 27.34,27.34 0 0 0 6.35,-3.87 6.73,6.73 0 0 0 1.84,-2.23 2,2 0 0 0 -0.68,-2.65 5.88,5.88 0 0 0 -2.12,-0.91 21.93,21.93 0 0 0 -5.54,-0.46 h -0.4 c 0,-0.56 0,-1.09 -0.11,-1.61 a 4.39,4.39 0 0 0 -4.33,-3.7 h -15.95 a 4.42,4.42 0 0 0 -4.44,4.43 v 4.66 c 0,0.09 0,0.18 0,0.3 a 5.22,5.22 0 0 1 0.54,-0.31 0.45,0.45 0 0 0 0.27,-0.48 c 0,-1.24 0,-2.48 0,-3.71 a 6.18,6.18 0 0 1 0.05,-1.06 3.57,3.57 0 0 1 3.65,-3 h 15.69 a 3.5,3.5 0 0 1 0.65,0 3.66,3.66 0 0 1 3.1,3.85 c 0,1.34 0,2.68 0,4 a 0.29,0.29 0 0 0 0.08,0.21 c 0.22,0.15 0.45,0.27 0.73,0.43 V 303 H 280 a 16.29,16.29 0 0 1 3.81,0.47 4.24,4.24 0 0 1 1.82,0.85 1,1 0 0 1 0.33,1.33 5.1,5.1 0 0 1 -0.71,1.15 11.05,11.05 0 0 1 -2.48,2.14 40.54,40.54 0 0 1 -8.11,4.08 0.43,0.43 0 0 1 -0.33,0 2.58,2.58 0 0 0 -3.6,1.24 0.53,0.53 0 0 1 -0.35,0.3 q -3.4,1.08 -6.9,1.83 c -1.17,0.25 -2.35,0.46 -3.61,0.71 a 2.75,2.75 0 0 0 0.64,-2.12 2.55,2.55 0 0 0 -1.13,-1.82 2.63,2.63 0 0 0 -3.33,0.34 2.56,2.56 0 0 0 -0.75,1.72 2.69,2.69 0 0 0 1.17,2.31 l -2.51,0.18 c 0,-0.1 0,-0.15 0,-0.2 0,-0.95 0,-1.9 0,-2.85 0,-0.12 0,-0.29 -0.1,-0.35 a 6,6 0 0 0 -0.72,-0.44 v 3.84 c -0.56,0 -1.1,0 -1.64,0 a 15.82,15.82 0 0 1 -3.56,-0.42 4.56,4.56 0 0 1 -2.06,-0.94 1.1,1.1 0 0 1 -0.3,-1.27 4.27,4.27 0 0 1 1.07,-1.55 14.47,14.47 0 0 1 3.38,-2.54 c 1.44,-0.79 2.92,-1.51 4.37,-2.26 0.11,-0.06 0.27,-0.13 0.29,-0.22 a 6.85,6.85 0 0 0 0,-0.79 l -0.2,0.07 c -0.66,0.3 -1.32,0.59 -2,0.91 a 26,26 0 0 0 -6,3.78 6.19,6.19 0 0 0 -1.65,2.08 2,2 0 0 0 0.77,2.7 6.33,6.33 0 0 0 2,0.82 20.9,20.9 0 0 0 5.4,0.48 c 0.21,0 0.3,0 0.38,0.25 a 4.4,4.4 0 0 0 4.17,2.84 z m 5.56,-16.35 2,-0.52 c 0.07,0 0.17,-0.09 0.18,-0.15 0,-0.23 0,-0.46 0,-0.73 l -2.17,0.54 c 0,-1 0,-2 0,-2.93 a 1,1 0 0 0 -1.08,-1.1 h -3.72 c -1,0 -2,0 -3,0 a 1.06,1.06 0 0 0 -1.16,1.13 v 8.05 a 1,1 0 0 0 1.1,1.08 c 2.23,0 4.47,0 6.7,0 a 1.08,1.08 0 0 0 1.13,-1.13 c 0,-0.94 0,-1.88 0,-2.82 z m 11.61,-3 a 7.82,7.82 0 0 0 0,-0.84 1,1 0 0 0 -1.19,-1.09 H 268 a 1,1 0 0 0 -1.18,1.19 v 8 a 1,1 0 0 0 1,1 h 6.84 a 1.19,1.19 0 0 0 0.55,-0.15 1.1,1.1 0 0 0 0.49,-1.08 v -6.23 l 0.7,-0.09 v -0.78 z"
       transform="translate(-238,-290)"
       id="path2-5" /><path
       class="cls-2"
       d="m 258.56,321.59 h -1 a 4.4,4.4 0 0 1 -4.17,-2.84 c -0.08,-0.21 -0.17,-0.25 -0.38,-0.25 a 20.9,20.9 0 0 1 -5.4,-0.48 6.33,6.33 0 0 1 -2,-0.82 2,2 0 0 1 -0.77,-2.7 6.19,6.19 0 0 1 1.65,-2.08 26,26 0 0 1 6,-3.78 c 0.65,-0.32 1.31,-0.61 2,-0.91 l 0.2,-0.07 a 6.85,6.85 0 0 1 0,0.79 c 0,0.09 -0.18,0.16 -0.29,0.22 -1.45,0.75 -2.93,1.47 -4.37,2.26 a 14.47,14.47 0 0 0 -3.38,2.54 4.27,4.27 0 0 0 -1.07,1.55 1.1,1.1 0 0 0 0.3,1.27 4.56,4.56 0 0 0 2.06,0.94 15.82,15.82 0 0 0 3.56,0.42 c 0.54,0 1.08,0 1.64,0 v -3.84 a 6,6 0 0 1 0.72,0.44 c 0.08,0.06 0.1,0.23 0.1,0.35 0,0.95 0,1.9 0,2.85 0,0.05 0,0.1 0,0.2 l 2.51,-0.18 a 2.69,2.69 0 0 1 -1.17,-2.31 2.56,2.56 0 0 1 0.75,-1.72 2.63,2.63 0 0 1 3.33,-0.34 2.55,2.55 0 0 1 1.13,1.82 2.75,2.75 0 0 1 -0.64,2.12 c 1.26,-0.25 2.44,-0.46 3.61,-0.71 q 3.49,-0.75 6.9,-1.83 a 0.53,0.53 0 0 0 0.35,-0.3 2.58,2.58 0 0 1 3.6,-1.24 0.43,0.43 0 0 0 0.33,0 40.54,40.54 0 0 0 8.11,-4.08 11.05,11.05 0 0 0 2.48,-2.14 5.1,5.1 0 0 0 0.71,-1.15 1,1 0 0 0 -0.33,-1.33 4.24,4.24 0 0 0 -1.82,-0.85 A 16.29,16.29 0 0 0 280,303 h -2.12 v 3.24 c -0.28,-0.16 -0.51,-0.28 -0.73,-0.43 a 0.29,0.29 0 0 1 -0.08,-0.21 c 0,-1.34 0,-2.68 0,-4 a 3.66,3.66 0 0 0 -3.1,-3.85 3.5,3.5 0 0 0 -0.65,0 h -15.73 a 3.57,3.57 0 0 0 -3.65,3 6.18,6.18 0 0 0 -0.05,1.06 c 0,1.23 0,2.47 0,3.71 a 0.45,0.45 0 0 1 -0.27,0.48 5.22,5.22 0 0 0 -0.54,0.31 c 0,-0.12 0,-0.21 0,-0.3 v -4.66 a 4.42,4.42 0 0 1 4.44,-4.43 h 15.92 a 4.39,4.39 0 0 1 4.33,3.7 c 0.08,0.52 0.07,1 0.11,1.61 h 0.4 a 21.93,21.93 0 0 1 5.54,0.46 5.88,5.88 0 0 1 2.12,0.91 2,2 0 0 1 0.68,2.65 6.73,6.73 0 0 1 -1.84,2.23 27.34,27.34 0 0 1 -6.35,3.87 c -1,0.47 -2,0.89 -3.07,1.34 l -0.19,0.09 A 2.56,2.56 0 0 1 275,317 a 2.36,2.36 0 0 1 -2.52,0.77 2.61,2.61 0 0 1 -2,-2.47 68.93,68.93 0 0 1 -16.29,3.13 3.51,3.51 0 0 0 0.93,1.36 3.69,3.69 0 0 0 2.63,0.95 h 13.1 c 0.93,0 1.86,0 2.79,0 a 3.53,3.53 0 0 0 3.38,-3.13 c 0.08,-1 0,-2 0,-3 a 0.43,0.43 0 0 1 0.28,-0.47 c 0.17,-0.07 0.32,-0.18 0.51,-0.28 a 2.06,2.06 0 0 1 0,0.21 c 0,1.11 0,2.22 0,3.33 a 4.33,4.33 0 0 1 -3.35,4 12.48,12.48 0 0 1 -1.94,0.13 2.4,2.4 0 0 1 -0.27,0 l 0.17,0.22 0.76,0.86 a 0.43,0.43 0 0 1 0,0.6 0.4,0.4 0 0 1 -0.61,-0.06 c -0.43,-0.46 -0.85,-0.93 -1.26,-1.42 a 0.54,0.54 0 0 0 -0.46,-0.2 h -10.94 a 0.68,0.68 0 0 0 -0.42,0.19 c -0.42,0.44 -0.81,0.9 -1.21,1.36 -0.23,0.26 -0.47,0.31 -0.67,0.13 -0.2,-0.18 -0.17,-0.42 0.06,-0.68 l 0.13,-0.15 z"
       transform="translate(-238,-290)"
       id="path3-5" /><path
       class="cls-2"
       d="m 264.12,305.24 v 1.41 c 0,0.94 0,1.88 0,2.82 A 1.08,1.08 0 0 1 263,310.6 c -2.23,0 -4.47,0 -6.7,0 a 1,1 0 0 1 -1.1,-1.08 v -8.05 a 1.06,1.06 0 0 1 1.16,-1.13 c 1,0 2,0 3,0 H 263 a 1,1 0 0 1 1.08,1.1 c 0,1 0,1.93 0,2.93 l 2.17,-0.54 c 0,0.27 0,0.5 0,0.73 0,0.06 -0.11,0.13 -0.18,0.15 z"
       transform="translate(-238,-290)"
       id="path4-1" /><path
       class="cls-2"
       d="m 275.73,302.25 h 0.71 V 303 l -0.7,0.09 v 6.23 a 1.1,1.1 0 0 1 -0.49,1.08 1.19,1.19 0 0 1 -0.55,0.15 h -6.84 a 1,1 0 0 1 -1,-1 v -8 a 1,1 0 0 1 1.18,-1.19 h 6.53 a 1,1 0 0 1 1.19,1.09 7.82,7.82 0 0 1 -0.03,0.8 z"
       transform="translate(-238,-290)"
       id="path5-7" /><path
       class="cls-3"
       d="m 301.66,302 v 1.41 h -5.05 v 15.12 h -1.55 V 303.39 H 290 V 302 Z"
       transform="translate(-238,-290)"
       id="path6-1" /><path
       class="cls-3"
       d="m 307.38,305.94 a 7.7,7.7 0 0 1 1.38,0.12 4.15,4.15 0 0 1 0.9,0.24 l -0.3,1.33 a 3.34,3.34 0 0 0 -0.74,-0.2 8.16,8.16 0 0 0 -1.47,-0.11 6.39,6.39 0 0 0 -1.54,0.15 3.38,3.38 0 0 0 -0.76,0.24 v 10.8 h -1.48 v -11.76 a 10.83,10.83 0 0 1 1.57,-0.53 9,9 0 0 1 2.44,-0.28 z"
       transform="translate(-238,-290)"
       id="path7-1" /><path
       class="cls-3"
       d="m 315.46,305.89 a 5,5 0 0 1 2,0.35 3.39,3.39 0 0 1 1.31,0.95 3.75,3.75 0 0 1 0.73,1.45 6.9,6.9 0 0 1 0.23,1.81 v 7.78 a 4.81,4.81 0 0 1 -0.66,0.15 l -1,0.18 c -0.38,0.07 -0.8,0.12 -1.27,0.16 -0.47,0.04 -0.94,0.06 -1.42,0.06 a 6.23,6.23 0 0 1 -1.72,-0.22 3.75,3.75 0 0 1 -1.37,-0.68 3.29,3.29 0 0 1 -0.91,-1.19 4.32,4.32 0 0 1 -0.33,-1.78 3.67,3.67 0 0 1 0.37,-1.72 3.22,3.22 0 0 1 1,-1.18 4.67,4.67 0 0 1 1.57,-0.68 8.84,8.84 0 0 1 2,-0.21 h 0.68 l 0.68,0.1 0.57,0.12 a 1.23,1.23 0 0 1 0.33,0.11 v -0.77 a 8.55,8.55 0 0 0 -0.09,-1.25 2.9,2.9 0 0 0 -0.4,-1.1 2.2,2.2 0 0 0 -0.87,-0.78 3.09,3.09 0 0 0 -1.47,-0.3 7.11,7.11 0 0 0 -1.93,0.19 c -0.43,0.13 -0.74,0.23 -0.93,0.31 l -0.21,-1.36 a 5.14,5.14 0 0 1 1.2,-0.36 9.7,9.7 0 0 1 1.91,-0.14 z m 0.14,11.5 c 0.58,0 1.08,0 1.51,-0.06 a 10.76,10.76 0 0 0 1.11,-0.15 v -4.34 a 3.82,3.82 0 0 0 -0.8,-0.25 6.45,6.45 0 0 0 -1.5,-0.14 7.49,7.49 0 0 0 -1.14,0.09 2.92,2.92 0 0 0 -1.09,0.36 2.1,2.1 0 0 0 -1.14,2 2.91,2.91 0 0 0 0.21,1.17 1.86,1.86 0 0 0 0.62,0.76 2.48,2.48 0 0 0 1,0.42 5.36,5.36 0 0 0 1.22,0.14 z"
       transform="translate(-238,-290)"
       id="path8-5" /><path
       class="cls-3"
       d="m 327,316.84 c 0.32,-0.68 0.65,-1.46 1,-2.35 0.35,-0.89 0.66,-1.79 1,-2.74 0.34,-0.95 0.6,-1.9 0.87,-2.86 0.27,-0.96 0.49,-1.87 0.67,-2.71 H 332 c -0.27,1.13 -0.58,2.24 -0.92,3.34 -0.34,1.1 -0.69,2.17 -1.06,3.22 -0.37,1.05 -0.77,2.06 -1.17,3 -0.4,0.94 -0.8,1.89 -1.18,2.74 h -1.38 c -0.4,-0.85 -0.8,-1.77 -1.19,-2.74 -0.39,-0.97 -0.79,-2 -1.16,-3 -0.37,-1 -0.73,-2.12 -1.07,-3.22 -0.34,-1.1 -0.64,-2.21 -0.91,-3.34 h 1.57 c 0.18,0.84 0.41,1.75 0.67,2.71 0.26,0.96 0.56,1.91 0.87,2.86 0.31,0.95 0.64,1.86 1,2.74 0.36,0.88 0.65,1.67 0.93,2.35 z"
       transform="translate(-238,-290)"
       id="path9-2" /><path
       class="cls-3"
       d="m 333.71,312.34 a 8.29,8.29 0 0 1 0.44,-2.83 6.27,6.27 0 0 1 1.16,-2 4.6,4.6 0 0 1 1.64,-1.2 4.7,4.7 0 0 1 1.9,-0.4 4.34,4.34 0 0 1 3.45,1.48 6.82,6.82 0 0 1 1.29,4.56 c 0,0.13 0,0.25 0,0.38 v 0.36 h -8.27 a 5.57,5.57 0 0 0 1.07,3.48 3.91,3.91 0 0 0 3.19,1.22 6.13,6.13 0 0 0 1.91,-0.24 9,9 0 0 0 1,-0.4 l 0.27,1.33 a 5.46,5.46 0 0 1 -1.2,0.45 7,7 0 0 1 -2.06,0.27 6.55,6.55 0 0 1 -2.64,-0.48 4.68,4.68 0 0 1 -1.8,-1.34 5.3,5.3 0 0 1 -1,-2 9.55,9.55 0 0 1 -0.35,-2.64 z m 8.36,-1 a 5.05,5.05 0 0 0 -0.87,-3 2.74,2.74 0 0 0 -2.32,-1.07 3,3 0 0 0 -1.43,0.33 3.6,3.6 0 0 0 -1.09,0.9 4.22,4.22 0 0 0 -0.73,1.3 5.69,5.69 0 0 0 -0.31,1.55 z"
       transform="translate(-238,-290)"
       id="path10-7" /><path
       class="cls-3"
       d="m 349.88,318.73 a 4.94,4.94 0 0 1 -1.31,-0.2 2.44,2.44 0 0 1 -0.94,-0.55 2.41,2.41 0 0 1 -0.57,-1 5,5 0 0 1 -0.19,-1.46 v -15.23 l 1.48,-0.29 v 15.51 a 3.73,3.73 0 0 0 0.1,0.92 1.12,1.12 0 0 0 0.85,0.84 5.79,5.79 0 0 0 0.78,0.17 z"
       transform="translate(-238,-290)"
       id="path11-6" /><path
       class="cls-3"
       d="m 355.69,318.73 a 4.88,4.88 0 0 1 -1.31,-0.2 2.37,2.37 0 0 1 -0.94,-0.55 2.41,2.41 0 0 1 -0.57,-1 4.7,4.7 0 0 1 -0.19,-1.46 v -15.23 l 1.48,-0.29 v 15.51 a 3.3,3.3 0 0 0 0.1,0.92 1.28,1.28 0 0 0 0.31,0.55 1.24,1.24 0 0 0 0.53,0.29 6,6 0 0 0 0.79,0.17 z"
       transform="translate(-238,-290)"
       id="path12-1" /><path
       class="cls-3"
       d="m 360.33,302.46 a 1.17,1.17 0 0 1 -0.32,0.87 1.06,1.06 0 0 1 -0.77,0.32 1.08,1.08 0 0 1 -0.78,-0.32 1.2,1.2 0 0 1 -0.31,-0.87 1.17,1.17 0 0 1 0.31,-0.87 1.05,1.05 0 0 1 0.78,-0.33 1,1 0 0 1 0.77,0.33 1.14,1.14 0 0 1 0.32,0.87 z M 360,318.51 h -1.48 V 306.18 H 360 Z"
       transform="translate(-238,-290)"
       id="path13-4" /><path
       class="cls-3"
       d="m 363.91,306.61 c 0.44,-0.13 1,-0.27 1.77,-0.43 a 13.34,13.34 0 0 1 2.74,-0.24 5.47,5.47 0 0 1 2.24,0.41 3.5,3.5 0 0 1 1.44,1.15 5,5 0 0 1 0.76,1.8 11.19,11.19 0 0 1 0.23,2.32 v 6.89 h -1.48 v -6.39 a 11.7,11.7 0 0 0 -0.18,-2.22 3.85,3.85 0 0 0 -0.56,-1.48 2.29,2.29 0 0 0 -1.05,-0.82 4.54,4.54 0 0 0 -1.63,-0.25 11.82,11.82 0 0 0 -1.81,0.12 5.77,5.77 0 0 0 -1,0.21 v 10.83 h -1.48 z"
       transform="translate(-238,-290)"
       id="path14-2" /><path
       class="cls-3"
       d="m 384.54,317.08 a 3.11,3.11 0 0 1 -0.41,0.28 6.13,6.13 0 0 1 -0.67,0.32 5.16,5.16 0 0 1 -0.91,0.27 5.1,5.1 0 0 1 -1.15,0.11 6,6 0 0 1 -2,-0.33 4.59,4.59 0 0 1 -1.68,-1.05 5.4,5.4 0 0 1 -1.15,-1.85 7.77,7.77 0 0 1 -0.43,-2.76 7.37,7.37 0 0 1 0.39,-2.43 5.82,5.82 0 0 1 1.1,-1.95 5.16,5.16 0 0 1 1.76,-1.28 5.64,5.64 0 0 1 2.33,-0.47 12.29,12.29 0 0 1 2.63,0.23 c 0.66,0.15 1.2,0.3 1.63,0.44 v 11.26 a 5,5 0 0 1 -1.37,3.95 6.14,6.14 0 0 1 -4.12,1.18 10.75,10.75 0 0 1 -2.06,-0.18 10.45,10.45 0 0 1 -1.58,-0.42 l 0.29,-1.4 a 7,7 0 0 0 1.49,0.45 9.45,9.45 0 0 0 1.91,0.19 4.47,4.47 0 0 0 3,-0.85 3.74,3.74 0 0 0 0.94,-2.9 z m 0,-9.4 a 8.24,8.24 0 0 0 -1,-0.22 10,10 0 0 0 -1.76,-0.11 4,4 0 0 0 -1.69,0.34 3.71,3.71 0 0 0 -1.27,1 4.35,4.35 0 0 0 -0.79,1.51 6.82,6.82 0 0 0 0,4 4.07,4.07 0 0 0 0.83,1.42 3,3 0 0 0 1.18,0.8 3.66,3.66 0 0 0 1.34,0.25 5.09,5.09 0 0 0 1.83,-0.31 3.87,3.87 0 0 0 1.29,-0.71 z"
       transform="translate(-238,-290)"
       id="path15-3" /></g><path
     style="fill:#f9f9f9;fill-opacity:1;stroke-width:0.0662252"
     d="M 5.0662252,37.325389 C 3.7783301,36.95101 2.8320399,35.900104 2.5886693,34.57393 2.4870408,34.020137 2.4870408,5.9798632 2.5886693,5.4260701 2.8371595,4.0719987 3.8308814,2.9948573 5.1459817,2.6540806 5.5116906,2.5593159 12.427781,2.5496689 80,2.5496689 c 67.57222,0 74.48831,0.00965 74.85402,0.1044117 1.12738,0.2921347 2.00967,1.1054405 2.42161,2.2322757 l 0.1747,0.4778821 V 20 34.635762 l -0.1747,0.477882 c -0.40979,1.120955 -1.30011,1.941665 -2.42161,2.232275 -0.36576,0.09478 -7.27587,0.103977 -74.896689,0.09969 C 9.3102775,37.441138 5.4430578,37.43493 5.0662252,37.325389 Z m 15.3265328,-4.3287 c 0.176404,-0.191225 0.506345,-0.556292 0.733203,-0.811259 0.226858,-0.254966 0.476091,-0.499771 0.55385,-0.54401 0.107753,-0.0613 1.479075,-0.08099 5.765316,-0.08278 l 5.623935,-0.0023 0.270105,0.288643 c 0.148558,0.158753 0.493614,0.544832 0.766793,0.857953 0.273179,0.313122 0.563742,0.588781 0.645696,0.612577 0.242482,0.07041 0.461134,-0.01999 0.530643,-0.219381 0.09129,-0.261863 0.006,-0.435205 -0.483056,-0.981621 -0.23561,-0.263253 -0.428382,-0.491939 -0.428382,-0.508193 0,-0.01625 0.394867,-0.04758 0.877483,-0.06961 1.105482,-0.05047 1.474237,-0.127512 2.135762,-0.446223 0.89635,-0.431846 1.564264,-1.087182 1.988811,-1.951362 0.419965,-0.854856 0.447309,-1.043654 0.478255,-3.302159 0.0154,-1.124135 0.003,-2.032904 -0.02748,-2.019488 -0.427807,0.188081 -0.753725,0.412285 -0.781239,0.537424 -0.01795,0.08165 -0.04217,0.923296 -0.05381,1.870316 -0.02074,1.68727 -0.02473,1.73091 -0.198765,2.172756 -0.450378,1.143447 -1.409612,1.979053 -2.551423,2.22259 -0.250426,0.05341 -2.75497,0.07485 -8.744364,0.07485 -9.291375,0 -8.737795,0.02501 -9.611799,-0.434265 -0.540931,-0.284251 -1.180141,-0.90789 -1.450533,-1.415197 l -0.201444,-0.377947 1.305369,-0.11561 c 3.390454,-0.300274 7.181182,-0.933773 10.510667,-1.756522 1.028916,-0.254255 3.86018,-1.053012 4.216163,-1.189464 0.173366,-0.06645 0.177196,-0.06204 0.220736,0.254532 0.147089,1.069467 1.044146,1.96221 2.19911,2.188535 1.118705,0.21922 2.214974,-0.359626 2.753848,-1.454071 0.196668,-0.39943 0.212792,-0.482465 0.212792,-1.095885 0,-0.585642 -0.02142,-0.70944 -0.18212,-1.052506 -0.100165,-0.213839 -0.182119,-0.410969 -0.182119,-0.438068 0,-0.0271 0.409768,-0.221602 0.910596,-0.43223 3.735285,-1.570909 5.919181,-2.771812 8.063149,-4.433846 1.183615,-0.917555 1.890106,-1.701855 2.358559,-2.618317 0.277685,-0.543251 0.33505,-1.188092 0.154144,-1.732749 -0.223895,-0.674084 -1.167668,-1.387814 -2.341823,-1.771006 -0.513451,-0.167568 -2.020588,-0.437895 -3.018797,-0.541465 -0.400662,-0.04157 -1.345985,-0.07862 -2.100717,-0.08234 l -1.372241,-0.0068 -0.03195,-0.267281 C 39.888111,11.775906 39.858421,11.410412 39.839711,11.1107 39.794101,10.380148 39.646442,9.8418338 39.317062,9.205298 38.823731,8.2519199 37.841206,7.4342023 36.788079,7.1005243 L 36.324503,6.9536424 H 27.417219 18.509934 L 18.07947,7.1071277 C 16.72606,7.589697 15.710768,8.6272862 15.248763,10 l -0.178312,0.529801 -0.02304,2.897351 c -0.01267,1.593543 0.0026,2.897351 0.03393,2.897351 0.03133,0 0.219557,-0.09711 0.418277,-0.215806 l 0.361308,-0.215806 0.03868,-2.549094 c 0.0428,-2.820386 0.06415,-2.983604 0.489455,-3.7408526 0.47274,-0.8417114 1.496122,-1.5868182 2.411367,-1.7556747 0.224461,-0.041412 3.477859,-0.065521 8.774834,-0.065027 9.148555,8.542e-4 8.703013,-0.016533 9.502156,0.3708093 0.486549,0.2358288 1.306355,1.0576609 1.5538,1.5576378 0.364397,0.7362892 0.379708,0.8784722 0.375313,3.4851622 -0.0027,1.581319 0.02006,2.446202 0.06657,2.5331 0.06375,0.119114 0.689709,0.527187 0.811004,0.528705 0.02732,3.42e-4 0.04967,-0.733763 0.04967,-1.631343 V 12.99435 l 1.837748,0.03996 c 1.952726,0.04246 2.430126,0.08717 3.692053,0.345764 1.682593,0.344793 2.774922,1.165636 2.557943,1.922196 -0.247296,0.862272 -1.288851,2.105857 -2.535981,3.027883 -1.885259,1.393806 -5.184422,3.150376 -8.060035,4.291396 l -0.885757,0.351461 -0.428151,-0.153553 c -1.326837,-0.475855 -2.733996,0.019 -3.320223,1.16762 -0.07055,0.138231 -0.183595,0.300191 -0.251212,0.359911 -0.342106,0.302151 -4.96032,1.520048 -8.268637,2.180572 -1.092715,0.218167 -2.04791,0.409822 -2.122654,0.425901 -0.125719,0.02704 -0.119426,-0.0041 0.08399,-0.415759 0.843224,-1.706408 -0.06133,-3.553684 -1.894028,-3.867957 -1.155118,-0.19808 -2.332699,0.431147 -2.842418,1.518817 -0.158374,0.337946 -0.178536,0.459499 -0.178536,1.076334 0,0.643771 0.0156,0.728288 0.210225,1.13912 0.115623,0.244065 0.342139,0.57567 0.503368,0.7369 l 0.293145,0.293143 -0.404032,0.03947 c -0.222217,0.02171 -0.754196,0.05954 -1.182176,0.08408 l -0.778146,0.04461 v -1.666171 -1.66617 l -0.361057,-0.230965 c -0.198582,-0.127032 -0.39229,-0.230966 -0.430464,-0.230966 -0.0468,0 -0.06941,0.625642 -0.06941,1.92053 v 1.92053 l -0.645696,-5.92e-4 C 12.112833,27.646268 9.7346318,27.291064 8.7653294,26.798819 7.5276729,26.170293 7.2916096,25.648868 7.7980132,24.662174 8.1000326,24.073709 8.8793946,23.231647 9.830996,22.465638 c 1.173975,-0.945013 1.800606,-1.315827 4.845679,-2.867478 1.052001,-0.536059 1.949981,-1.020802 1.99551,-1.077209 0.122314,-0.151533 0.110571,-0.871944 -0.01421,-0.871944 -0.05335,0 -0.627023,0.240161 -1.274834,0.53369 -2.429474,1.10082 -4.108857,2.062158 -5.7358453,3.283402 -1.6656561,1.250269 -2.1938502,1.803383 -2.7738922,2.904762 -0.2598713,0.493442 -0.2791057,0.566161 -0.2802644,1.059603 -0.00227,0.966231 0.4137038,1.540947 1.5015601,2.074582 0.7165578,0.351499 1.2163833,0.503396 2.3026548,0.699774 1.246232,0.225296 2.184532,0.312534 3.558886,0.330887 0.650133,0.0087 1.219584,0.03898 1.265446,0.06732 0.04586,0.02835 0.156252,0.2163 0.245312,0.417678 0.490562,1.109249 1.457341,1.971451 2.670754,2.381859 0.41192,0.139322 0.671926,0.176908 1.415171,0.204577 l 0.910535,0.0339 -0.496628,0.519814 c -0.533112,0.558002 -0.622198,0.802549 -0.387026,1.06241 0.204764,0.226262 0.461132,0.154812 0.812957,-0.226573 z M 143.64412,32.879334 c 1.223,-0.14751 2.37293,-0.63706 3.01323,-1.282794 0.47828,-0.48234 0.90368,-1.261479 1.09308,-2.002053 0.12511,-0.489186 0.13036,-0.759608 0.13036,-6.714639 v -6.204924 l -0.49468,-0.146856 c -1.08147,-0.321055 -1.68347,-0.410261 -3.02975,-0.448964 -1.40445,-0.04037 -1.7803,5.39e-4 -2.58855,0.281769 -1.28586,0.447415 -2.23013,1.318648 -2.86756,2.64575 -0.95695,1.992317 -0.8845,4.884005 0.16669,6.653417 0.66027,1.111389 1.56442,1.785197 2.86045,2.131692 0.7391,0.197602 2.11072,0.211942 2.80771,0.02935 0.55701,-0.145921 1.32921,-0.49051 1.65353,-0.73788 l 0.23593,-0.179955 -0.0338,0.98685 c -0.0376,1.098707 -0.13601,1.578006 -0.44149,2.151151 -0.341,0.639787 -0.60006,0.887659 -1.26984,1.215004 -0.84197,0.411503 -1.48251,0.530292 -2.56154,0.475039 -0.97816,-0.05009 -1.80362,-0.185535 -2.53094,-0.415294 -0.2903,-0.09171 -0.54321,-0.151339 -0.56203,-0.132519 -0.0188,0.01882 -0.0764,0.237058 -0.1279,0.484972 -0.0515,0.247914 -0.10931,0.501206 -0.12841,0.562871 -0.0279,0.09019 0.0533,0.137947 0.41555,0.244188 0.7863,0.230627 1.48494,0.34877 2.37082,0.400914 1.28712,0.07576 1.28516,0.07576 1.88915,0.0029 z M 78.476821,28.641432 c 0.854027,-0.058 1.752808,-0.185774 2.835,-0.403043 l 0.351556,-0.07058 -0.0256,-4.348805 c -0.02873,-4.88051 -0.02917,-4.885477 -0.511179,-5.876146 -0.429973,-0.883706 -1.087079,-1.435596 -2.086861,-1.752698 -0.586973,-0.186173 -2.046093,-0.251515 -2.983007,-0.133585 -0.657165,0.08272 -1.459834,0.277453 -1.552284,0.376599 -0.05269,0.0565 0.07929,1.053429 0.148635,1.122773 0.01992,0.01992 0.240232,-0.02391 0.489583,-0.09741 0.768504,-0.226523 1.297596,-0.287249 2.255722,-0.258898 1.068848,0.03163 1.468841,0.152337 1.971788,0.595048 0.693066,0.610062 0.897702,1.19358 0.94555,2.696217 0.03335,1.047475 0.03005,1.0851 -0.09089,1.036525 -0.416827,-0.167411 -1.382927,-0.300489 -2.178476,-0.30008 -1.888159,9.69e-4 -3.136782,0.376721 -3.949252,1.188461 -0.661146,0.660557 -0.944126,1.41817 -0.94049,2.517966 0.007,2.122304 1.067583,3.341734 3.194775,3.673295 0.714404,0.111353 0.93841,0.114974 2.12543,0.03436 z m 24.867549,-0.155341 c 0.36424,-0.09077 0.80706,-0.227184 0.98405,-0.303134 0.31967,-0.137174 0.3215,-0.139736 0.27628,-0.385689 -0.11019,-0.599271 -0.18196,-0.876738 -0.22677,-0.876738 -0.0265,0 -0.23808,0.07442 -0.47018,0.165381 -0.6836,0.267902 -1.33697,0.372237 -2.38457,0.380792 -0.87474,0.0071 -1.00746,-0.0079 -1.49007,-0.168345 -1.035315,-0.344296 -1.737223,-0.956683 -2.213196,-1.930936 -0.333477,-0.682594 -0.524788,-1.399164 -0.579894,-2.172058 l -0.04131,-0.57947 h 4.15708 4.15708 l -0.0327,-1.208609 c -0.0286,-1.057925 -0.0547,-1.282919 -0.2094,-1.804636 -0.55406,-1.868472 -1.44468,-2.903177 -2.91982,-3.392183 -0.46325,-0.153569 -0.63793,-0.175732 -1.39073,-0.176455 -0.977709,-9.38e-4 -1.432636,0.09543 -2.187153,0.463333 -1.135901,0.553863 -2.121391,1.758041 -2.568457,3.138418 -0.312139,0.963795 -0.39647,1.670782 -0.357596,2.998025 0.0377,1.287112 0.122079,1.812721 0.441086,2.74775 0.261589,0.766721 0.549775,1.223679 1.162192,1.842829 0.764974,0.773382 1.518305,1.151706 2.768598,1.3904 0.74581,0.14238 2.29348,0.07866 3.12544,-0.128675 z m 8.46859,0.0404 c 0.0186,-0.06374 0.0529,-0.264901 0.0763,-0.44702 0.0233,-0.182119 0.0556,-0.379455 0.0718,-0.438525 0.023,-0.08438 -0.0669,-0.131309 -0.41947,-0.218964 -0.59473,-0.147847 -0.893,-0.352488 -1.08646,-0.745426 l -0.15703,-0.318939 -0.0178,-8.130082 -0.0178,-8.13008 -0.14774,0.03425 c -0.23512,0.05452 -1.11355,0.232529 -1.14747,0.232529 -0.0169,0 -0.0212,3.59851 -0.01,7.996689 0.0196,7.373374 0.0303,8.030172 0.13737,8.426256 0.27972,1.034959 0.92365,1.593885 2.05382,1.7827 0.53296,0.08904 0.62734,0.08288 0.66417,-0.04339 z m 5.86236,-0.303438 c 0.11691,-0.671332 0.11148,-0.691484 -0.20843,-0.773894 -0.77163,-0.198768 -0.96356,-0.31936 -1.1939,-0.75012 l -0.14716,-0.275197 -0.0176,-8.163257 -0.0176,-8.163258 -0.14799,0.03432 c -0.22777,0.05282 -1.11328,0.232592 -1.1457,0.232592 -0.0158,0 -0.0288,3.532714 -0.0288,7.850475 0,8.45896 -5.4e-4,8.444533 0.34356,9.132982 0.29536,0.590902 0.86949,1.010926 1.57697,1.15367 0.97305,0.196326 0.90035,0.216832 0.98658,-0.278313 z M 58.543046,20.89404 v -7.549669 h 2.516557 2.516556 v -0.629139 -0.629139 h -5.728477 -5.728477 v 0.596026 0.596027 h 2.516557 2.516556 v 7.582781 7.582782 h 0.695364 0.695364 z m 8.211921,2.159508 v -5.39016 l 0.281457,-0.11276 c 0.913781,-0.366086 3.30755,-0.406165 4.161232,-0.06967 0.08605,0.03392 0.126549,-0.06164 0.225053,-0.531009 0.09971,-0.475131 0.10494,-0.581752 0.03079,-0.627581 -0.223663,-0.138232 -1.275457,-0.263021 -2.215086,-0.262808 -1.301044,2.96e-4 -2.108869,0.139852 -3.327815,0.574901 l -0.480132,0.171362 v 5.774794 c 0,3.176136 0.01987,5.794661 0.04415,5.818943 0.02428,0.02428 0.322295,0.04415 0.662252,0.04415 h 0.618101 z m 55.165563,-0.702555 v -6.092715 h -0.66225 -0.66225 v 6.092715 6.092716 h 0.66225 0.66225 z m 5.36424,0.673096 v -5.419621 l 0.44702,-0.105765 c 0.69122,-0.163541 1.96091,-0.269253 2.73043,-0.227328 1.89244,0.103103 2.70027,0.835835 3.09452,2.806839 0.0846,0.42315 0.10891,1.235138 0.13277,4.441654 l 0.0292,3.923841 h 0.62408 0.62409 v -3.935606 c 0,-2.42896 -0.0271,-4.130259 -0.0707,-4.444071 -0.18114,-1.302351 -0.58145,-2.272491 -1.18796,-2.878998 -0.4432,-0.443198 -0.80631,-0.663342 -1.49695,-0.907552 -0.51751,-0.182993 -0.53778,-0.184737 -2.11192,-0.181674 -1.47237,0.0029 -1.6528,0.01646 -2.45033,0.184618 -0.47351,0.09984 -1.02946,0.228237 -1.23543,0.285327 l -0.37451,0.103799 -0.0257,5.83741 c -0.0142,3.210574 -0.0152,5.85976 -0.002,5.887078 0.0128,0.02732 0.30469,0.04967 0.64857,0.04967 h 0.62523 z m -37.133121,4.128229 c 1.201258,-2.770033 1.924861,-4.714567 2.784742,-7.483444 0.420397,-1.353707 0.904669,-3.116177 0.904669,-3.292469 0,-0.104845 -0.06893,-0.118127 -0.613067,-0.118127 h -0.613066 l -0.222397,0.943709 c -0.366239,1.55405 -1.024252,3.771501 -1.587934,5.351218 -0.70204,1.967451 -1.70406,4.42907 -1.804185,4.432287 -0.05808,0.0019 -1.484067,-3.652695 -1.86004,-4.766949 -0.661994,-1.961918 -1.643682,-5.455127 -1.643682,-5.848816 0,-0.09737 -0.08783,-0.111449 -0.695364,-0.111449 -0.449259,0 -0.695365,0.02505 -0.695365,0.07078 0,0.113335 0.317139,1.340516 0.606391,2.346439 0.770517,2.679649 2.266788,6.735603 3.390682,9.191172 l 0.23602,0.515675 0.647821,-0.01899 0.647828,-0.01899 z M 25.596026,20.47877 c 0.174544,-0.09764 0.315728,-0.248888 0.413908,-0.443406 0.14575,-0.288766 0.149006,-0.344058 0.149006,-2.530288 v -2.23507 l 0.248345,-0.06808 c 0.136589,-0.03744 0.60596,-0.165643 1.043046,-0.284894 l 0.794702,-0.216819 0.01958,-0.446136 c 0.01077,-0.245374 0.0018,-0.446135 -0.01993,-0.446135 -0.04146,0 -1.835818,0.444246 -2.036081,0.504093 -0.108231,0.03234 -0.11591,-0.07623 -0.116141,-1.642014 -2.81e-4,-1.90214 -0.01823,-1.978703 -0.524318,-2.236891 -0.257073,-0.131149 -0.371624,-0.135122 -3.89585,-0.135122 h -3.63099 l -0.295489,0.149007 c -0.216596,0.109223 -0.335623,0.228573 -0.445806,0.44702 l -0.150316,0.298013 0.01787,4.382597 c 0.01765,4.329059 0.01956,4.384882 0.156406,4.569537 0.0762,0.102816 0.237061,0.253992 0.357476,0.335945 l 0.218936,0.149007 3.715372,-0.0011 3.715372,-0.0011 z m 11.587142,-0.01 c 0.123899,-0.05177 0.302479,-0.210793 0.396845,-0.353389 l 0.171573,-0.259265 0.01493,-3.371776 0.01494,-3.371776 0.198675,-0.01816 c 0.492649,-0.04503 0.496689,-0.04893 0.496689,-0.479791 v -0.396089 l -0.347682,4e-6 -0.347682,3e-6 v -0.624162 c 0,-0.677238 -0.06324,-0.833505 -0.455968,-1.12672 -0.17978,-0.134226 -0.247895,-0.136542 -4.014231,-0.136542 -3.783744,0 -3.83367,0.0017 -4.018322,0.13854 -0.102837,0.0762 -0.254834,0.238256 -0.337772,0.360131 l -0.150797,0.221593 0.01835,4.40808 c 0.01746,4.195825 0.02441,4.41809 0.144188,4.61598 0.06921,0.114344 0.23312,0.270117 0.364239,0.346161 0.233883,0.135643 0.30833,0.138289 3.932577,0.139782 3.045526,0.0013 3.733735,-0.01501 3.919451,-0.0926 z m 84.592202,-7.05979 c 0.44638,-0.272152 0.60188,-0.998331 0.32563,-1.520727 -0.36089,-0.682439 -1.30187,-0.710664 -1.70401,-0.05111 -0.15833,0.259685 -0.17959,0.892717 -0.039,1.162834 0.10257,0.197144 0.34853,0.439843 0.50298,0.496299 0.23549,0.08609 0.70332,0.04143 0.91444,-0.0873 z"
     id="path21" /><path
     style="fill:#f9f9f9;fill-opacity:1;stroke-width:0.0662252"
     d="m 76.298005,27.314701 c -1.134528,-0.297103 -1.714436,-0.971314 -1.833292,-2.131418 -0.106327,-1.03781 0.358316,-1.923021 1.24675,-2.37524 0.546313,-0.278076 1.037881,-0.390323 1.904431,-0.434866 0.833193,-0.04283 1.469246,0.02939 2.235099,0.253785 l 0.480133,0.140677 v 2.236746 2.236747 l -0.182119,0.03904 c -0.512943,0.109959 -1.284556,0.165909 -2.268212,0.164467 -0.864432,-0.0013 -1.195099,-0.02841 -1.58279,-0.129939 z"
     id="path22" /><path
     style="fill:#f9f9f9;fill-opacity:1;stroke-width:0.0662252"
     d="m 97.255257,21.043046 c 0.156683,-1.290182 0.729283,-2.412602 1.599096,-3.134574 1.073946,-0.891408 2.625627,-0.977428 3.782297,-0.209675 0.79218,0.525815 1.4077,1.819137 1.51283,3.178686 l 0.0423,0.546358 h -3.49136 -3.491358 z"
     id="path23" /><path
     style="fill:#f9f9f9;fill-opacity:1;stroke-width:0.0662252"
     d="m 142.84441,26.720512 c -1.59193,-0.246042 -2.68527,-1.372758 -3.05126,-3.144405 -0.18144,-0.878276 -0.14849,-2.307006 0.0718,-3.112531 0.46639,-1.705528 1.5262,-2.795771 3.0268,-3.113717 0.78974,-0.16733 2.18862,-0.105223 3.25064,0.144323 l 0.48014,0.112817 v 4.027211 4.027211 l -0.28146,0.20772 c -0.86122,0.635596 -2.42664,1.016747 -3.49665,0.851371 z"
     id="path24" /><path
     style="fill:#000000;fill-opacity:1;stroke-width:0.0662252"
     d="M 4.7682119,39.837944 C 3.6754879,39.605731 2.7384615,39.114376 1.9376015,38.353637 1.0619309,37.521836 0.48239311,36.53183 0.18287474,35.356092 L 0.03311258,34.768212 V 20.033113 c 0,-14.1447151 0.0049474,-14.756327 0.12348025,-15.2649011 C 0.44105417,3.547709 0.90391921,2.7098846 1.7880795,1.8150848 2.7196793,0.87227457 3.6976387,0.34986619 4.9349104,0.13410407 5.4516158,0.04399818 13.548966,0.03320636 80.058344,0.0339826 c 72.431806,8.4535e-4 74.561236,0.0043631 75.141506,0.12413039 1.2233,0.25248382 2.25273,0.83020615 3.11843,1.75007831 0.79434,0.8440447 1.29312,1.7880617 1.52864,2.8931332 0.11375,0.533725 0.11997,1.3218268 0.11997,15.1986755 0,13.876849 -0.006,14.66495 -0.11997,15.198675 -0.25423,1.192893 -0.7583,2.10343 -1.66811,3.013246 -0.93904,0.93904 -1.82966,1.412242 -3.12417,1.659922 -0.42985,0.08224 -10.54652,0.09442 -75.110137,0.09039 C 8.2596702,39.957751 5.3090317,39.952873 4.7682119,39.837944 Z M 155.12429,38.379571 c 1.51832,-0.388321 2.68406,-1.485005 3.20522,-3.015333 l 0.18042,-0.529801 V 20 5.1655629 L 158.32951,4.6357616 C 157.80835,3.105434 156.64261,2.0087494 155.12429,1.6204291 154.61877,1.4911408 153.99954,1.4900662 80,1.4900662 6.3032901,1.4900662 5.3792295,1.4916509 4.8817475,1.6188854 3.3377267,2.0137794 2.1954726,3.0866735 1.6698378,4.6357616 L 1.4900662,5.1655629 V 20 34.834437 l 0.1797716,0.529801 c 0.5184801,1.528003 1.6697974,2.616281 3.1892797,3.014653 0.4595621,0.120486 2.4402116,0.123846 75.1137305,0.127396 74.032652,0.0036 74.645892,0.0026 75.151442,-0.126716 z"
     id="path25" /><path
     style="fill:#000000;fill-opacity:1;stroke-width:0.0662252"
     d="m 19.646026,33.157037 c -0.20108,-0.22219 -0.129031,-0.38833 0.428644,-0.988436 l 0.538245,-0.579197 -0.952153,-0.04148 c -0.769571,-0.03353 -1.055403,-0.07487 -1.490598,-0.215613 -1.090945,-0.352803 -2.045884,-1.179157 -2.559091,-2.214503 -0.150238,-0.30309 -0.328032,-0.580439 -0.395098,-0.616332 -0.06996,-0.03744 -0.311347,-0.04701 -0.566308,-0.02244 C 13.630086,28.57728 10.843734,28.288215 9.476792,27.94238 8.5623275,27.711022 7.5755432,27.205435 7.1678872,26.759394 6.6706191,26.215304 6.5139338,25.580519 6.7133495,24.917911 c 0.1295995,-0.430626 0.6543351,-1.284208 1.0913649,-1.77531 0.7025324,-0.789456 2.9977926,-2.491645 4.4959016,-3.33421 1.041363,-0.585682 4.177163,-2.093159 4.354113,-2.093159 0.01871,0 0.03401,0.16322 0.03401,0.362712 0,0.304456 -0.02393,0.377639 -0.149007,0.455656 -0.08195,0.05112 -1.144202,0.605594 -2.360551,1.232166 -3.052623,1.572484 -3.951854,2.152417 -5.2859196,3.409008 -0.9727387,0.916248 -1.4505636,1.730374 -1.3967129,2.379743 0.036566,0.440935 0.2019533,0.680068 0.6981149,1.009401 1.0714319,0.711176 2.9840706,1.085089 5.5504476,1.085089 h 1.420449 v -1.891655 -1.891655 l 0.266472,0.149766 c 0.510903,0.287144 0.492719,0.216024 0.515937,2.017844 l 0.02082,1.6157 h 0.267492 c 0.336312,0 2.199599,-0.140307 2.229869,-0.167911 0.01234,-0.01126 -0.09731,-0.128663 -0.243684,-0.2609 -1.299856,-1.174342 -1.097595,-3.288021 0.398538,-4.164813 1.537265,-0.900896 3.510385,0.02344 3.838464,1.798182 0.110984,0.600371 -0.08407,1.441152 -0.443714,1.912676 -0.09616,0.126068 -0.158264,0.245778 -0.138018,0.266025 0.05265,0.05265 2.974491,-0.521035 4.834908,-0.949297 2.668945,-0.614383 5.765111,-1.513567 5.946461,-1.726962 0.05497,-0.06468 0.178717,-0.255702 0.275004,-0.424499 0.396029,-0.694264 1.175026,-1.166212 2.032774,-1.23154 0.348164,-0.02652 0.528857,2.97e-4 0.945103,0.140246 0.283052,0.09517 0.564142,0.173031 0.624646,0.173031 0.175314,0 2.188451,-0.824536 3.286372,-1.346024 3.512302,-1.668267 6.202798,-3.408154 7.305998,-4.724634 0.423513,-0.50539 0.809668,-1.137061 0.917887,-1.501474 0.201978,-0.680132 -0.164198,-1.207617 -1.17439,-1.691737 -1.042431,-0.49957 -2.531155,-0.726285 -5.134092,-0.78186 l -1.870861,-0.03994 v 1.635994 1.635994 L 39.589682,16.033866 C 39.020713,15.694574 39.069357,15.962406 39.07403,13.194742 39.07863,10.487686 39.07063,10.418808 38.659138,9.6034496 38.399297,9.0885891 37.69949,8.3887821 37.184634,8.1289376 36.311448,7.688247 36.93558,7.7152318 27.616037,7.7152318 c -5.743981,0 -8.578562,0.022829 -8.845596,0.071239 -1.272826,0.2307485 -2.405329,1.2804857 -2.790401,2.5864712 -0.08483,0.287698 -0.110493,0.835698 -0.134509,2.872091 -0.01821,1.544082 -0.05542,2.547731 -0.09628,2.597231 -0.03663,0.04437 -0.199847,0.155145 -0.362698,0.246164 l -0.296094,0.165491 0.02614,-2.828946 c 0.02814,-3.045374 0.03093,-3.072148 0.405848,-3.8910793 0.544503,-1.1893497 1.664023,-2.1278905 2.918625,-2.4468052 0.59414,-0.1510278 17.422474,-0.1513428 18.01853,-3.373e-4 1.952256,0.4945868 3.338497,2.2888892 3.342458,4.3263588 4e-4,0.206233 0.01968,0.489695 0.04285,0.629916 l 0.04212,0.254946 0.702184,-0.04411 c 1.906778,-0.119775 5.186453,0.316992 6.387468,0.850644 1.2359,0.549152 1.831272,1.250603 1.831272,2.157555 0,0.510903 -0.15644,0.918423 -0.617247,1.607901 -0.461083,0.689892 -0.893468,1.140459 -1.745024,1.818401 -2.209267,1.758847 -4.453206,3.007553 -8.333093,4.637195 -0.47351,0.198884 -0.883678,0.383223 -0.911485,0.409642 -0.02781,0.02642 0.04638,0.239851 0.164857,0.474296 0.197792,0.391391 0.215473,0.477734 0.21612,1.055403 6.36e-4,0.566548 -0.01965,0.672082 -0.203852,1.060787 -0.50728,1.07043 -1.590486,1.674725 -2.625556,1.464736 -0.616778,-0.125129 -1.071152,-0.358426 -1.46245,-0.75089 -0.401063,-0.402257 -0.611275,-0.795743 -0.722245,-1.351937 -0.04275,-0.214271 -0.08118,-0.396472 -0.0854,-0.404891 -0.0042,-0.0084 -0.601774,0.163852 -1.327903,0.382826 -4.295902,1.295485 -9.139842,2.223993 -13.687991,2.623772 -1.492866,0.131222 -1.4134,0.07353 -1.020028,0.740542 0.281956,0.478091 0.936753,1.078687 1.44645,1.326719 0.875827,0.426199 0.370983,0.405024 9.656568,0.405024 9.360005,0 8.792053,0.0257 9.674036,-0.437768 0.765169,-0.402085 1.436503,-1.226276 1.72022,-2.1119 0.05576,-0.174055 0.0981,-0.888017 0.123449,-2.081857 l 0.03859,-1.816957 0.298014,-0.181149 c 0.163907,-0.09963 0.323013,-0.183492 0.353569,-0.186355 0.03056,-0.0029 0.04226,0.881384 0.02602,1.964993 -0.02409,1.606848 -0.05069,2.043479 -0.144212,2.36755 -0.185965,0.644406 -0.611396,1.389254 -1.055523,1.84802 -0.9539,0.985341 -1.993485,1.361695 -3.765942,1.363357 -0.318709,2.99e-4 -0.57947,0.02613 -0.57947,0.05741 0,0.03128 0.227235,0.316084 0.504966,0.632902 0.531808,0.606652 0.620006,0.838297 0.384694,1.010362 -0.278094,0.203348 -0.439588,0.08009 -1.459901,-1.114224 -0.238132,-0.278744 -0.497808,-0.524198 -0.577059,-0.545453 -0.07925,-0.02126 -2.674892,-0.03905 -5.768092,-0.03955 l -5.624001,-9.04e-4 -0.435906,0.44702 c -0.239748,0.245861 -0.616111,0.648179 -0.836361,0.89404 -0.421319,0.470311 -0.587329,0.539611 -0.780725,0.325911 z"
     id="path26" /><path
     style="fill:#000000;fill-opacity:1;stroke-width:0.0662252"
     d="M 17.747311,20.44212 C 17.603942,20.36707 17.460128,20.211281 17.36755,20.030736 l -0.149007,-0.290589 0.0015,-4.240934 c 0.0014,-3.992623 0.0087,-4.256829 0.124734,-4.512387 0.0678,-0.149299 0.223606,-0.343008 0.346227,-0.430464 l 0.222949,-0.159011 3.675497,-0.01734 c 4.10292,-0.01935 3.970071,-0.03302 4.28676,0.441036 0.146415,0.21917 0.150326,0.268712 0.150326,1.903973 0,0.923422 0.01642,1.678949 0.03648,1.678949 0.03934,0 1.841415,-0.446823 2.033054,-0.504093 0.100541,-0.03005 0.115895,0.01369 0.115895,0.330158 0,0.200636 -0.02511,0.380312 -0.0558,0.39928 -0.04782,0.02955 -0.715187,0.216738 -1.779538,0.499128 l -0.279047,0.07404 -0.01897,2.337788 -0.01897,2.337788 -0.190849,0.250116 c -0.3398,0.445322 -0.236048,0.434739 -4.2617,0.434739 -3.38377,0 -3.644581,-0.0082 -3.859743,-0.120794 z"
     id="path27" /><path
     style="fill:#000000;fill-opacity:1;stroke-width:0.0662252"
     d="m 29.328573,20.334558 c -0.465185,-0.316102 -0.454401,-0.198474 -0.454401,-4.956137 0,-4.830783 -0.02778,-4.577912 0.534702,-4.866612 l 0.293113,-0.150443 3.687246,0.01799 c 3.606434,0.0176 3.691252,0.02099 3.87008,0.154535 0.394164,0.294366 0.456324,0.44965 0.451246,1.127288 l -0.0047,0.623587 h 0.355817 0.355816 l -0.02002,0.347682 c -0.01917,0.332993 -0.02841,0.34845 -0.218693,0.365842 -0.109272,0.01 -0.266187,0.03302 -0.348702,0.05119 l -0.150027,0.03303 0.0033,3.349448 c 0.0036,3.736882 0.02092,3.59032 -0.461619,3.915503 L 37.00028,20.496689 H 33.283725 29.56717 Z"
     id="path28" /><path
     style="fill:#000000;fill-opacity:1;stroke-width:0.0662252"
     d="M 57.218543,20.794702 V 13.211921 H 54.701987 52.18543 v -0.529802 -0.529801 h 5.662252 5.662252 v 0.562914 0.562914 h -2.516557 -2.516556 v 7.549669 7.549668 h -0.629139 -0.629139 z"
     id="path29" /><path
     style="fill:#000000;fill-opacity:1;stroke-width:0.0662252"
     d="m 65.496689,22.622157 v -5.755326 l 0.546357,-0.196577 c 1.196579,-0.430524 1.676316,-0.507843 3.162252,-0.509657 1.276276,-0.0016 1.920978,0.06411 2.172091,0.221228 0.06985,0.0437 0.06574,0.142874 -0.02186,0.528045 -0.05932,0.26083 -0.112924,0.47365 -0.11911,0.472933 -0.0062,-7.17e-4 -0.249659,-0.04438 -0.54105,-0.09703 -1.1021,-0.199127 -2.994513,-0.09358 -3.751299,0.209227 l -0.255323,0.10216 v 5.39016 5.39016 H 66.09272 65.496694 Z"
     id="path30" /><path
     style="fill:#000000;fill-opacity:1;stroke-width:0.0662252"
     d="m 76.574104,28.571913 c -1.067336,-0.138837 -1.810762,-0.464408 -2.4072,-1.054196 -0.627868,-0.620865 -0.940337,-1.462012 -0.947584,-2.55083 -0.0098,-1.477019 0.64252,-2.558309 1.89772,-3.145524 0.825877,-0.386368 1.455209,-0.49686 2.82998,-0.49686 1.158319,0 1.812133,0.08174 2.198698,0.274887 0.09836,0.04914 0.198965,0.08935 0.223573,0.08935 0.08306,0 -0.0225,-2.272123 -0.121521,-2.615894 -0.143324,-0.497552 -0.405085,-0.965346 -0.689068,-1.231436 -0.5995,-0.561728 -1.108313,-0.722207 -2.289824,-0.722207 -0.950225,0 -1.606804,0.08268 -2.155413,0.271433 -0.201842,0.06944 -0.380782,0.112465 -0.397644,0.0956 -0.04682,-0.04682 -0.140154,-0.572591 -0.1434,-0.807829 -0.0026,-0.190789 0.02453,-0.218462 0.311685,-0.317487 0.84037,-0.289805 2.797176,-0.395277 3.737392,-0.201447 1.393,0.287174 2.377643,1.216649 2.732626,2.579521 0.204492,0.785098 0.23528,1.492811 0.23528,5.408288 v 3.952086 l -0.31457,0.07217 c -0.663842,0.152295 -1.938938,0.338825 -2.757961,0.403456 -0.957587,0.07556 -1.34285,0.07495 -1.942769,-0.0031 z m 3.40934,-1.187994 0.413907,-0.08019 v -2.275362 c 0,-2.6213 0.09027,-2.325857 -0.779503,-2.551215 -0.713445,-0.184853 -1.927107,-0.232136 -2.74463,-0.106928 -1.132282,0.173415 -1.860786,0.627803 -2.236843,1.395182 -0.346592,0.707252 -0.331264,1.705979 0.03794,2.471787 0.276339,0.573193 0.880195,0.991638 1.702742,1.179927 0.500063,0.114469 2.961135,0.09181 3.606391,-0.0332 z"
     id="path31" /><path
     style="fill:#000000;fill-opacity:1;stroke-width:0.0662252"
     d="m 88.281679,28.053283 c -0.598914,-1.173968 -2.086882,-5.001116 -2.845246,-7.318154 -0.451904,-1.380708 -1.264248,-4.181952 -1.264248,-4.359569 0,-0.02808 0.277119,-0.05106 0.61582,-0.05106 h 0.615819 l 0.152922,0.678808 c 0.268268,1.190817 0.849436,3.233894 1.354192,4.760615 0.404624,1.223855 1.964761,5.312656 2.065587,5.413482 0.03818,0.03818 0.472383,-0.905878 0.91875,-1.997591 0.987297,-2.414704 2.081997,-5.810981 2.59279,-8.044055 L 92.673632,16.3245 h 0.550601 c 0.302831,0 0.550601,0.02357 0.550601,0.05237 0,0.115298 -0.60282,2.292078 -0.888637,3.208862 -0.921751,2.956606 -1.431165,4.318389 -2.923398,7.814928 l -0.388619,0.910596 h -0.580446 -0.580446 z"
     id="path32" /><path
     style="fill:#000000;fill-opacity:1;stroke-width:0.0662252"
     d="m 100.2213,28.548939 c -2.040005,-0.389684 -3.350825,-1.534528 -3.949717,-3.449601 -0.303996,-0.972088 -0.397433,-1.767123 -0.360526,-3.067659 0.03951,-1.392224 0.201647,-2.138234 0.671865,-3.091282 0.886059,-1.795886 2.273569,-2.760435 4.112438,-2.858828 1.25856,-0.06734 2.37143,0.334883 3.2107,1.160437 0.37234,0.366257 0.50952,0.567917 0.81748,1.201703 0.5419,1.115254 0.65136,1.585408 0.68995,2.963576 l 0.032,1.142384 h -4.15658 -4.156569 l 0.04089,0.612583 c 0.05543,0.830494 0.248572,1.549469 0.61821,2.301324 0.396579,0.806656 0.852446,1.270233 1.625868,1.653368 0.793051,0.392857 1.384381,0.483074 2.643861,0.403361 0.85144,-0.05389 1.07539,-0.0932 1.64839,-0.289386 0.65609,-0.224634 0.66341,-0.225547 0.6948,-0.08659 0.12919,0.572006 0.16297,0.785799 0.13205,0.835823 -0.0525,0.08491 -0.71402,0.321042 -1.32221,0.47196 -0.69992,0.173681 -2.31674,0.225988 -2.9929,0.09683 z m 3.9939,-7.638343 c -0.12599,-1.696303 -0.82082,-2.95143 -1.94014,-3.504628 -0.42172,-0.208429 -0.56131,-0.24288 -1.09766,-0.270924 -1.16218,-0.06077 -1.90407,0.222592 -2.698502,1.030676 -0.738781,0.751475 -1.151796,1.681665 -1.292268,2.910439 l -0.04732,0.413907 h 3.55947 3.55946 z"
     id="path33" /><path
     style="fill:#000000;fill-opacity:1;stroke-width:0.0662252"
     d="m 111.05255,28.477703 c -1.18583,-0.239483 -1.79132,-0.928268 -1.97464,-2.24629 -0.0475,-0.341686 -0.0713,-3.060083 -0.0713,-8.155473 v -7.642953 l 0.14901,-0.03384 c 0.54809,-0.124468 0.76305,-0.164318 0.89404,-0.165741 l 0.14901,-0.0016 v 7.899993 c 0,6.917959 0.0127,7.949059 0.10254,8.294702 0.16658,0.641187 0.51069,0.9104 1.42478,1.114668 l 0.16971,0.03792 -0.0722,0.481986 c -0.0835,0.556803 -0.0817,0.555836 -0.77091,0.416642 z"
     id="path34" /><path
     style="fill:#000000;fill-opacity:1;stroke-width:0.0662252"
     d="m 117.11921,28.529963 c -1.10029,-0.145933 -1.78161,-0.673509 -2.11271,-1.635976 -0.13772,-0.400333 -0.13911,-0.475226 -0.15729,-8.432013 l -0.0183,-8.028094 0.15078,-0.03508 c 0.0829,-0.01929 0.35149,-0.07593 0.59679,-0.125858 l 0.446,-0.09078 0.0176,8.120839 0.0176,8.120838 0.15469,0.314107 c 0.19413,0.394183 0.45593,0.582382 1.00407,0.721793 l 0.43065,0.10953 -0.005,0.255099 c -0.003,0.140305 -0.0266,0.366855 -0.0527,0.503445 -0.0493,0.258547 -0.0487,0.258272 -0.47185,0.202148 z"
     id="path35" /><path
     style="fill:#000000;fill-opacity:1;stroke-width:0.0662252"
     d="m 120.66225,22.350993 v -6.02649 h 0.59603 0.59602 v 6.02649 6.02649 h -0.59602 -0.59603 z"
     id="path36" /><path
     style="fill:#000000;fill-opacity:1;stroke-width:0.0662252"
     d="m 120.7842,13.375889 c -0.0968,-0.0526 -0.24177,-0.201936 -0.32207,-0.331868 -0.12155,-0.196673 -0.14142,-0.30813 -0.11867,-0.665482 0.0247,-0.387838 0.0504,-0.452271 0.26606,-0.66797 0.30811,-0.308108 0.75674,-0.371797 1.10028,-0.156198 0.627,0.39349 0.59332,1.488281 -0.0561,1.824112 -0.23887,0.123521 -0.63951,0.122326 -0.8695,-0.0026 z"
     id="path37" /><path
     style="fill:#000000;fill-opacity:1;stroke-width:0.0662252"
     d="m 126.0788,22.566225 c 0.0187,-3.470258 0.056,-5.827166 0.0928,-5.850748 0.10814,-0.06938 1.58653,-0.388469 2.27211,-0.490403 1.00887,-0.150001 2.72671,-0.132947 3.38344,0.03359 1.41987,0.360054 2.2906,1.182081 2.73541,2.582395 0.30984,0.975386 0.33755,1.435847 0.33784,5.612582 l 2.6e-4,3.923841 h -0.56291 -0.56292 l -0.001,-3.493377 c -0.001,-4.301712 -0.0722,-5.108901 -0.53597,-6.115152 -0.21705,-0.470881 -0.69755,-1.001596 -1.09109,-1.205103 -0.82484,-0.426542 -2.74537,-0.485572 -4.41484,-0.135697 l -0.51325,0.107562 v 5.420883 5.420884 h -0.5855 -0.5855 z"
     id="path38" /><path
     style="fill:#000000;fill-opacity:1;stroke-width:0.0662252"
     d="m 141.82119,32.817058 c -1.17506,-0.07473 -2.65485,-0.384171 -2.72619,-0.570079 -0.0285,-0.07426 0.0673,-0.699106 0.14306,-0.933351 0.0176,-0.0544 0.16755,-0.03205 0.50934,0.07594 0.81754,0.25829 1.72091,0.381172 2.86849,0.390188 0.93989,0.0074 1.11572,-0.0092 1.5563,-0.146765 1.15172,-0.359624 1.72317,-0.817682 2.11986,-1.699214 0.26878,-0.597281 0.32097,-0.895107 0.3639,-2.076625 0.0427,-1.17471 0.0624,-1.125435 -0.33204,-0.829737 -0.38859,0.291313 -1.2132,0.629855 -1.86263,0.764702 -1.49761,0.31096 -3.27423,-0.08471 -4.31166,-0.960251 -1.26587,-1.068328 -1.97931,-3.047287 -1.84222,-5.11001 0.19429,-2.92352 1.66117,-4.881033 4.09486,-5.464495 0.42092,-0.100914 0.7781,-0.13062 1.57125,-0.130677 1.29069,-9.2e-5 2.49709,0.178717 3.62744,0.53765 l 0.21684,0.06886 -0.0182,6.30228 -0.0182,6.30228 -0.18649,0.529802 c -0.21486,0.610427 -0.65518,1.351888 -1.03561,1.743893 -0.34064,0.351009 -1.44628,0.891852 -2.17746,1.065147 -0.67884,0.160889 -1.51679,0.206856 -2.56071,0.140468 z m 2.84768,-6.135057 c 0.61996,-0.149922 1.22476,-0.403429 1.62252,-0.680096 l 0.36424,-0.253348 0.0171,-4.106313 0.0171,-4.106313 -0.51375,-0.110511 c -1.71285,-0.368451 -3.24184,-0.306302 -4.25546,0.172971 -0.63977,0.302508 -1.35462,1.04263 -1.71194,1.77247 -0.4664,0.952646 -0.56357,1.433696 -0.56854,2.814569 -0.005,1.345553 0.0695,1.757451 0.46989,2.602188 0.40267,0.849631 1.23268,1.590763 2.08696,1.86349 0.64771,0.206781 1.69074,0.219816 2.47197,0.03089 z"
     id="path39" /><path
     style="fill:#ffffff;fill-opacity:1;stroke-width:0.0662252"
     d="M 5.4966887,38.379007 C 4.9318726,38.343341 4.7115784,38.296932 4.3232921,38.131814 3.2902881,37.692529 2.4953407,36.943458 2.0187491,35.960265 1.4851505,34.859469 1.5231788,36.084203 1.5231788,20 1.5231788,3.884251 1.4831008,5.1471686 2.0305339,4.0124876 2.5275176,2.9823747 3.4309716,2.186736 4.5804898,1.7668354 L 5.0662252,1.589404 H 80 154.93377 l 0.48574,0.1774314 c 0.71078,0.2596381 1.1693,0.5545652 1.74099,1.1198244 0.41562,0.4109478 0.56308,0.6161648 0.80896,1.1258278 0.54744,1.134681 0.50736,-0.1282366 0.50736,15.9875124 0,16.115749 0.0401,14.852831 -0.50736,15.987513 -0.49698,1.030112 -1.40043,1.825751 -2.54995,2.245652 l -0.48574,0.177431 -74.370856,0.0062 C 39.65894,38.420145 5.8791391,38.403158 5.4966887,38.379007 Z M 154.78151,37.443372 c 1.18451,-0.247015 2.18075,-1.179275 2.61106,-2.443372 0.11969,-0.351626 0.12399,-0.871033 0.12399,-15 0,-14.1289668 -0.004,-14.6483741 -0.12399,-15 -0.41872,-1.2300415 -1.32529,-2.1075335 -2.50058,-2.4203472 -0.53698,-0.1429207 -149.2470052,-0.1429207 -149.7839792,0 C 4.133493,2.83903 3.2778188,3.539991 2.8468136,4.4320064 2.6870954,4.7625617 2.561327,5.1439746 2.5175787,5.4304636 2.4685457,5.7515609 2.4524215,10.321062 2.4651161,20.298013 l 0.018328,14.403974 0.1464127,0.383623 c 0.2533131,0.663717 0.4940945,1.034899 0.9508134,1.465744 0.4721431,0.445396 0.9879196,0.736847 1.5417062,0.871175 0.4665843,0.113177 149.1170836,0.133879 149.6591336,0.02084 z"
     id="path40" /><path
     style="fill:#ffffff;fill-opacity:1;stroke-width:0.0662252"
     d="M 4.7682119,39.838674 C 2.556794,39.371598 0.83026901,37.716768 0.20839043,35.468201 L 0.03311258,34.834437 V 20.033113 5.2317881 L 0.18035679,4.6545097 C 0.48782484,3.4490656 1.0289741,2.5155099 1.9059187,1.677682 2.7670019,0.85500801 3.7897828,0.33379761 4.9349104,0.13410407 5.4516158,0.04399818 13.548966,0.03320636 80.058344,0.0339826 c 72.513296,8.4631e-4 74.560546,0.0042385 75.140336,0.12450274 2.23729,0.46407797 3.96737,2.11142896 4.59293,4.37331406 l 0.17528,0.6337635 V 20 34.834437 l -0.17528,0.633764 c -0.62621,2.264234 -2.35648,3.912333 -4.59176,4.373686 -0.58036,0.119784 -2.70214,0.123153 -75.232963,0.119471 C 8.4291669,39.957725 5.3077599,39.952633 4.7682119,39.838674 Z M 155.29801,38.353481 c 0.93376,-0.316194 1.77071,-0.895576 2.28825,-1.584057 0.38485,-0.51197 0.57009,-0.875142 0.76824,-1.506194 l 0.15543,-0.495018 V 20 5.2317881 L 158.3545,4.7367697 C 158.15635,4.105718 157.97111,3.7425464 157.58626,3.2305761 157.05508,2.5239503 156.18311,1.9291501 155.26144,1.6447294 154.88031,1.527116 152.44248,1.5231788 80,1.5231788 7.5575245,1.5231788 5.1196917,1.527116 4.7385616,1.6447294 3.250323,2.1039866 2.1724258,3.1545946 1.6698378,4.6357616 L 1.4900662,5.1655629 V 20 34.834437 l 0.1804247,0.529801 c 0.4585145,1.346388 1.3761543,2.315518 2.7150197,2.867363 0.3336871,0.137537 0.5727743,0.179806 1.2105159,0.214012 0.4370861,0.02344 34.2168875,0.04006 75.0662255,0.03692 72.260238,-0.0056 74.281388,-0.009 74.635758,-0.129049 z"
     id="path41" /><path
     style="fill:#000000;fill-opacity:1;stroke-width:0.0662252"
     d="M 5.0321457,38.307511 C 3.9593177,38.149408 2.7786811,37.252518 2.124212,36.098451 1.6520746,35.265902 1.6534412,35.277119 1.5789271,31.622517 1.4958773,27.54927 1.5536389,6.2382191 1.6501875,5.3311258 1.7081317,4.7867282 1.7584686,4.6198271 2.0238995,4.0920154 2.5521567,3.0415713 3.3702388,2.2886503 4.4701987,1.8405665 L 5,1.6247446 l 74.985583,-0.00111 74.985577,-0.00111 0.51983,0.2004684 c 1.07486,0.4145102 1.98656,1.2491471 2.49375,2.2829753 0.26122,0.5324552 0.30116,0.6772565 0.37445,1.3576159 0.11809,1.0963237 0.1186,27.9694468 5.5e-4,29.0728478 -0.0739,0.691057 -0.10967,0.81808 -0.38593,1.371561 -0.52332,1.048459 -1.34179,1.802445 -2.44401,2.251449 L 155,38.375256 80.198675,38.368294 C 39.057947,38.364465 5.2330086,38.337113 5.0321457,38.307511 Z M 154.41672,37.458562 c 0.58563,-0.04386 0.73941,-0.08238 1.1614,-0.29094 0.66264,-0.327495 1.28673,-0.973539 1.62156,-1.678588 0.21913,-0.461433 0.25031,-0.594204 0.29299,-1.247741 0.0626,-0.95938 0.0622,-27.5302004 -5.1e-4,-28.4911896 -0.0448,-0.6870098 -0.0679,-0.7795606 -0.32245,-1.2933018 -0.35896,-0.7244054 -0.91437,-1.2896847 -1.60042,-1.6288773 l -0.49583,-0.2451428 -2.25527,-0.042465 C 149.02009,2.4688012 71.972444,2.4261101 37.582781,2.4764658 L 5.1324503,2.5239819 4.7612396,2.6704481 C 3.6275117,3.1177757 2.6983064,4.2322832 2.5153289,5.3642384 2.4752544,5.6121521 2.450954,11.206401 2.4507147,20.239236 l -3.836e-4,14.477646 0.19406,0.470601 c 0.106733,0.25883 0.283401,0.600453 0.3925954,0.759161 0.3126777,0.454462 0.9927965,1.042173 1.4650005,1.26595 l 0.4317878,0.204625 2.3178808,0.03516 c 3.6994424,0.05612 146.4181344,0.06212 147.1650644,0.0062 z"
     id="path42" /><g
     inkscape:groupmode="layer"
     id="layer2"
     inkscape:label="Layer 1"><rect
       style="fill:#ffffff"
       id="rect4"
       width="7.4467177"
       height="8.5957661"
       x="29.599047"
       y="11.136931"
       rx="1.0983099"
       ry="0.5" /><rect
       style="fill:#ffffff"
       id="rect4-8"
       width="7.4467177"
       height="8.5957661"
       x="18.007582"
       y="11.169194"
       rx="1.0983099"
       ry="0.5" /></g><ellipse
     style="fill:#ffffff;stroke-width:0.99872"
     id="path43"
     cx="19.90395"
     cy="25.229347"
     rx="2.0605533"
     ry="2.1047473" /><ellipse
     style="fill:#ffffff;stroke-width:0.99872"
     id="path43-2"
     cx="35.11993"
     cy="25.231699"
     rx="2.0605533"
     ry="2.1047473" /></svg>
